<svg width="121" height="41" viewBox="0 0 121 41" fill="none" xmlns="http://www.w3.org/2000/svg">
<rect x="1" y="1.45166" width="119" height="39" rx="6.5" fill="#0C0D10"/>
<path d="M82.0257 20.1525V22.4435H80.5896V23.946H82.0257V29.051C82.0257 30.7941 82.8143 31.4914 84.7981 31.4914C85.1468 31.4914 85.4788 31.4499 85.7693 31.4001V29.9142C85.5203 29.9391 85.3626 29.9557 85.0887 29.9557C84.2005 29.9557 83.8104 29.5407 83.8104 28.5944V23.946H85.7693V22.4435H83.8104V20.1525H82.0257Z" fill="white"/>
<path d="M90.8232 31.6159C93.4628 31.6159 95.0815 29.8478 95.0815 26.9177C95.0815 24.0041 93.4545 22.2277 90.8232 22.2277C88.1835 22.2277 86.5566 24.0041 86.5566 26.9177C86.5566 29.8478 88.1752 31.6159 90.8232 31.6159ZM90.8232 30.0304C89.2709 30.0304 88.3994 28.8932 88.3994 26.9177C88.3994 24.9587 89.2709 23.8132 90.8232 23.8132C92.3671 23.8132 93.247 24.9587 93.247 26.9177C93.247 28.8849 92.3671 30.0304 90.8232 30.0304Z" fill="white"/>
<path d="M96.4664 31.4416H98.2511V26.1042C98.2511 24.8342 99.2056 23.9792 100.559 23.9792C100.874 23.9792 101.405 24.0373 101.555 24.0871V22.3273C101.364 22.2775 101.024 22.2526 100.758 22.2526C99.5792 22.2526 98.5748 22.9001 98.3175 23.7883H98.1846V22.402H96.4664V31.4416Z" fill="white"/>
<path d="M105.986 23.7468C107.306 23.7468 108.169 24.6681 108.211 26.0876H103.645C103.745 24.6764 104.666 23.7468 105.986 23.7468ZM108.202 29.0012C107.87 29.7067 107.132 30.0969 106.052 30.0969C104.625 30.0969 103.703 29.0925 103.645 27.507V27.4074H110.029V26.7848C110.029 23.946 108.509 22.2277 105.994 22.2277C103.446 22.2277 101.827 24.0622 101.827 26.9509C101.827 29.8395 103.413 31.6159 106.003 31.6159C108.07 31.6159 109.514 30.6198 109.921 29.0012H108.202Z" fill="white"/>
<path d="M70.3221 28.1034C70.4598 30.3231 72.3095 31.7427 75.0626 31.7427C78.005 31.7427 79.8462 30.2543 79.8462 27.8797C79.8462 26.0128 78.7966 24.9803 76.2499 24.3867L74.882 24.0512C73.2645 23.6726 72.6106 23.165 72.6106 22.2788C72.6106 21.1604 73.6259 20.4291 75.1487 20.4291C76.5941 20.4291 77.5921 21.1432 77.7727 22.2874H79.6483C79.5365 20.1968 77.6953 18.7256 75.1745 18.7256C72.4644 18.7256 70.6576 20.1968 70.6576 22.4079C70.6576 24.2318 71.6815 25.3159 73.927 25.8407L75.5272 26.2279C77.1705 26.615 77.8932 27.1828 77.8932 28.1292C77.8932 29.2305 76.7575 30.0306 75.2089 30.0306C73.5484 30.0306 72.3955 29.2821 72.2321 28.1034H70.3221Z" fill="white"/>
<path d="M51.8348 22.2526C50.6063 22.2526 49.5437 22.8669 48.9959 23.8962H48.8631V22.402H47.1448V34.4465H48.9295V30.072H49.0706C49.5437 31.0265 50.5647 31.591 51.8514 31.591C54.1341 31.591 55.5867 29.7897 55.5867 26.9177C55.5867 24.0456 54.1341 22.2526 51.8348 22.2526ZM51.3284 29.9889C49.8343 29.9889 48.8963 28.8102 48.8963 26.926C48.8963 25.0334 49.8343 23.8547 51.3367 23.8547C52.8475 23.8547 53.7522 25.0085 53.7522 26.9177C53.7522 28.8351 52.8475 29.9889 51.3284 29.9889Z" fill="white"/>
<path d="M61.8316 22.2526C60.603 22.2526 59.5405 22.8669 58.9927 23.8962H58.8599V22.402H57.1416V34.4465H58.9263V30.072H59.0674C59.5405 31.0265 60.5615 31.591 61.8482 31.591C64.1309 31.591 65.5835 29.7897 65.5835 26.9177C65.5835 24.0456 64.1309 22.2526 61.8316 22.2526ZM61.3252 29.9889C59.8311 29.9889 58.8931 28.8102 58.8931 26.926C58.8931 25.0334 59.8311 23.8547 61.3335 23.8547C62.8443 23.8547 63.749 25.0085 63.749 26.9177C63.749 28.8351 62.8443 29.9889 61.3252 29.9889Z" fill="white"/>
<path d="M43.9428 31.4416H45.9905L41.508 19.0267H39.4346L34.9521 31.4416H36.931L38.0752 28.1464H42.8072L43.9428 31.4416ZM40.3724 21.2808H40.5186L42.3168 26.529H38.5656L40.3724 21.2808Z" fill="white"/>
<path d="M36.1514 9.66284V15.6519H38.3137C40.0984 15.6519 41.1318 14.552 41.1318 12.6387C41.1318 10.7544 40.0901 9.66284 38.3137 9.66284H36.1514ZM37.0811 10.5095H38.21C39.4509 10.5095 40.1855 11.2981 40.1855 12.6511C40.1855 14.0249 39.4634 14.8052 38.21 14.8052H37.0811V10.5095Z" fill="white"/>
<path d="M44.2969 15.739C45.6167 15.739 46.4261 14.855 46.4261 13.3899C46.4261 11.9331 45.6126 11.0449 44.2969 11.0449C42.9771 11.0449 42.1636 11.9331 42.1636 13.3899C42.1636 14.855 42.9729 15.739 44.2969 15.739ZM44.2969 14.9463C43.5208 14.9463 43.085 14.3777 43.085 13.3899C43.085 12.4104 43.5208 11.8376 44.2969 11.8376C45.0689 11.8376 45.5088 12.4104 45.5088 13.3899C45.5088 14.3735 45.0689 14.9463 44.2969 14.9463Z" fill="white"/>
<path d="M53.3182 11.1321H52.4259L51.6207 14.5811H51.5501L50.6205 11.1321H49.7655L48.8358 14.5811H48.7694L47.9601 11.1321H47.0553L48.3004 15.6519H49.2176L50.1473 12.3232H50.2179L51.1517 15.6519H52.0772L53.3182 11.1321Z" fill="white"/>
<path d="M54.3458 15.6519H55.2382V13.0081C55.2382 12.3025 55.6574 11.8625 56.3173 11.8625C56.9772 11.8625 57.2926 12.2236 57.2926 12.95V15.6519H58.185V12.7258C58.185 11.6509 57.6288 11.0449 56.6203 11.0449C55.9396 11.0449 55.4914 11.3479 55.2714 11.8501H55.205V11.1321H54.3458V15.6519Z" fill="white"/>
<path d="M59.5903 15.6519H60.4826V9.36816H59.5903V15.6519Z" fill="white"/>
<path d="M63.8386 15.739C65.1584 15.739 65.9678 14.855 65.9678 13.3899C65.9678 11.9331 65.1543 11.0449 63.8386 11.0449C62.5188 11.0449 61.7053 11.9331 61.7053 13.3899C61.7053 14.855 62.5146 15.739 63.8386 15.739ZM63.8386 14.9463C63.0625 14.9463 62.6267 14.3777 62.6267 13.3899C62.6267 12.4104 63.0625 11.8376 63.8386 11.8376C64.6106 11.8376 65.0505 12.4104 65.0505 13.3899C65.0505 14.3735 64.6106 14.9463 63.8386 14.9463Z" fill="white"/>
<path d="M68.6265 14.9753C68.1409 14.9753 67.7881 14.7388 67.7881 14.332C67.7881 13.9336 68.0704 13.7219 68.6929 13.6804L69.7969 13.6099V13.9875C69.7969 14.5479 69.2989 14.9753 68.6265 14.9753ZM68.3982 15.7266C68.9917 15.7266 69.4856 15.4692 69.7554 15.0168H69.826V15.6519H70.6851V12.564C70.6851 11.6094 70.0459 11.0449 68.9129 11.0449C67.8877 11.0449 67.1573 11.543 67.066 12.3191H67.9292C68.0289 11.9995 68.3733 11.8169 68.8714 11.8169C69.4815 11.8169 69.7969 12.0867 69.7969 12.564V12.9541L68.5726 13.0247C67.4976 13.0911 66.8916 13.5601 66.8916 14.3735C66.8916 15.1995 67.5267 15.7266 68.3982 15.7266Z" fill="white"/>
<path d="M73.7132 15.7266C74.3358 15.7266 74.8629 15.4319 75.1327 14.938H75.2032V15.6519H76.0582V9.36816H75.1659V11.8501H75.0995C74.8546 11.3521 74.3316 11.0574 73.7132 11.0574C72.5719 11.0574 71.8373 11.9622 71.8373 13.3899C71.8373 14.8218 72.5636 15.7266 73.7132 15.7266ZM73.9664 11.8584C74.7135 11.8584 75.1825 12.4519 75.1825 13.394C75.1825 14.3403 74.7176 14.9255 73.9664 14.9255C73.211 14.9255 72.7586 14.3486 72.7586 13.3899C72.7586 12.4395 73.2152 11.8584 73.9664 11.8584Z" fill="white"/>
<path d="M81.8447 15.739C83.1645 15.739 83.9738 14.855 83.9738 13.3899C83.9738 11.9331 83.1604 11.0449 81.8447 11.0449C80.5249 11.0449 79.7114 11.9331 79.7114 13.3899C79.7114 14.855 80.5207 15.739 81.8447 15.739ZM81.8447 14.9463C81.0686 14.9463 80.6328 14.3777 80.6328 13.3899C80.6328 12.4104 81.0686 11.8376 81.8447 11.8376C82.6166 11.8376 83.0566 12.4104 83.0566 13.3899C83.0566 14.3735 82.6166 14.9463 81.8447 14.9463Z" fill="white"/>
<path d="M85.155 15.6519H86.0474V13.0081C86.0474 12.3025 86.4666 11.8625 87.1265 11.8625C87.7864 11.8625 88.1018 12.2236 88.1018 12.95V15.6519H88.9941V12.7258C88.9941 11.6509 88.438 11.0449 87.4294 11.0449C86.7488 11.0449 86.3005 11.3479 86.0806 11.8501H86.0142V11.1321H85.155V15.6519Z" fill="white"/>
<path d="M93.1039 10.0073V11.1528H92.3858V11.9041H93.1039V14.4565C93.1039 15.3281 93.4981 15.6768 94.4901 15.6768C94.6644 15.6768 94.8304 15.656 94.9757 15.6311V14.8882C94.8512 14.9006 94.7723 14.9089 94.6353 14.9089C94.1913 14.9089 93.9962 14.7014 93.9962 14.2283V11.9041H94.9757V11.1528H93.9962V10.0073H93.1039Z" fill="white"/>
<path d="M96.1735 15.6519H97.0658V13.0122C97.0658 12.3274 97.4726 11.8667 98.203 11.8667C98.8339 11.8667 99.1701 12.2319 99.1701 12.9541V15.6519H100.062V12.7341C100.062 11.6592 99.4689 11.0491 98.506 11.0491C97.8253 11.0491 97.348 11.3521 97.1281 11.8584H97.0575V9.36816H96.1735V15.6519Z" fill="white"/>
<path d="M103.281 11.8044C103.941 11.8044 104.373 12.2651 104.394 12.9749H102.111C102.161 12.2693 102.622 11.8044 103.281 11.8044ZM104.39 14.4316C104.224 14.7844 103.854 14.9795 103.315 14.9795C102.601 14.9795 102.14 14.4773 102.111 13.6846V13.6348H105.303V13.3235C105.303 11.9041 104.543 11.0449 103.286 11.0449C102.011 11.0449 101.202 11.9622 101.202 13.4065C101.202 14.8508 101.995 15.739 103.29 15.739C104.323 15.739 105.045 15.241 105.249 14.4316H104.39Z" fill="white"/>
<path d="M25.269 21.2522C25.2907 19.5712 26.1934 17.9806 27.6256 17.1002C26.7221 15.8099 25.2088 14.9918 23.6344 14.9425C21.9552 14.7662 20.3272 15.9473 19.4715 15.9473C18.5992 15.9473 17.2817 14.96 15.863 14.9892C14.0137 15.0489 12.2898 16.1003 11.3901 17.7171C9.45607 21.0655 10.8987 25.9865 12.7513 28.6931C13.6782 30.0185 14.7615 31.4989 16.1789 31.4464C17.566 31.3889 18.084 30.562 19.7583 30.562C21.4171 30.562 21.9031 31.4464 23.3493 31.4131C24.8377 31.3889 25.7754 30.0818 26.6698 28.7439C27.3358 27.7996 27.8483 26.7558 28.1882 25.6514C26.4391 24.9116 25.271 23.1514 25.269 21.2522Z" fill="white"/>
<path d="M22.5373 13.1625C23.3489 12.1883 23.7487 10.9361 23.6518 9.67188C22.412 9.8021 21.2668 10.3947 20.4443 11.3315C19.64 12.2468 19.2214 13.477 19.3006 14.6929C20.5408 14.7056 21.7601 14.1291 22.5373 13.1625Z" fill="white"/>
<rect x="1" y="1.45166" width="119" height="39" rx="6.5" stroke="#A6A6A6"/>
</svg>
