<svg width="634" height="406" viewBox="0 0 634 406" fill="none" xmlns="http://www.w3.org/2000/svg">
<path d="M0 0.95166H634V397.952C634 402.37 630.418 405.952 626 405.952H8C3.58173 405.952 0 402.37 0 397.952V0.95166Z" fill="white"/>
<g clip-path="url(#clip0_977_19088)">
<path d="M43.8012 399.853C4.42626 336.886 -7.91097 300.109 25.8686 233.144C42.5225 200.161 2.92761 167.622 29.0217 142.686C50.5964 122.077 74.3251 149.862 101.694 86.5678C145.347 -14.3886 200.701 78.1386 257.494 32.6124C344.1 -36.8075 440.612 17.8277 502.885 101.239C514.962 117.416 537.574 115.907 555.375 122.58C608.645 145.012 604.76 185.252 594.171 242.784C589.532 267.98 603.216 276.213 609.651 289.033C629.445 330.028 608.451 369.149 587.448 403.819L43.8012 399.853Z" fill="#E3EAFF"/>
<path d="M561.93 384.934C562.005 376.999 566.453 370.072 575.272 364.152C573.55 374.628 569.103 381.556 561.93 384.934Z" fill="#95A6DB"/>
<path d="M575.53 377.806C576.696 370.667 581.659 365.04 590.421 360.927C587.426 370.13 582.463 375.756 575.53 377.806Z" fill="#95A6DB"/>
<path d="M589.558 371.192C591.652 364.645 597.103 360.049 605.913 357.405C601.823 365.644 596.371 370.24 589.558 371.192Z" fill="#95A6DB"/>
<path d="M619.712 358.198C614.873 364.288 609.547 367.13 603.734 366.723C606.641 361.671 611.966 358.829 619.712 358.198Z" fill="#95A6DB"/>
<path d="M629.505 362.187C624.612 366.488 619.806 368.044 615.088 366.854C618.221 363.125 623.026 361.569 629.505 362.187Z" fill="#95A6DB"/>
<path d="M618.86 370.284C623.117 367.92 628.163 368.184 634 371.077C627.885 373.343 622.838 373.079 618.86 370.284Z" fill="#95A6DB"/>
<path d="M587.611 395.296C577.135 397.59 568.976 395.993 563.133 390.505C570.604 387.641 578.763 389.238 587.611 395.296Z" fill="#95A6DB"/>
<path d="M587.155 375.819C593.702 375.691 599.532 379.195 604.646 386.329C595.955 385.166 590.125 381.663 587.155 375.819Z" fill="#95A6DB"/>
<path d="M612.855 381.794C605.29 380.784 600.217 377.736 597.636 372.651C603.339 372.534 608.412 375.582 612.855 381.794Z" fill="#95A6DB"/>
<path d="M608.771 371.513C614.463 371.41 619.536 374.457 623.99 380.656C616.422 379.645 611.349 376.597 608.771 371.513Z" fill="#95A6DB"/>
<path d="M550.008 395.556C565.006 383.889 564.448 385.36 574.664 379.801C577.422 378.297 580.147 376.959 582.838 375.788C588.384 373.46 594.167 371.738 600.085 370.654C606.996 369.24 612.273 368.903 615.915 369.642L616.389 369.556C616.448 369.52 616.518 369.505 616.587 369.516C616.656 369.526 616.719 369.56 616.765 369.612C616.833 369.629 616.896 369.66 616.952 369.703C617.007 369.746 617.053 369.8 617.087 369.861C617.113 370.003 617.107 370.149 617.068 370.287C617.051 370.355 617.02 370.419 616.977 370.474C616.934 370.53 616.88 370.576 616.818 370.609L616.551 370.754C616.404 370.778 616.254 370.773 616.109 370.739L616.069 370.793L615.757 370.701C612.183 370.057 607.048 370.407 600.35 371.752C594.501 372.863 588.792 374.611 583.325 376.963C580.565 378.117 577.868 379.413 575.242 380.846L574.561 381.223C581.605 379.66 588.667 382.168 595.749 388.746C586.106 389.397 579.043 386.889 574.561 381.223C564.557 386.741 565.409 385.108 550.792 396.487L550.008 395.556Z" fill="#95A6DB"/>
<path d="M601.498 292.173C601.498 292.173 604.038 298.092 598.108 307.576C592.062 317.239 592.277 324.428 592.277 324.428L587.297 327.859C587.297 327.859 587.51 316.99 592.736 309.447C599.29 300.025 601.498 292.173 601.498 292.173Z" fill="#95A6DB"/>
<path d="M614.759 296.678C614.759 296.678 615.124 301.409 608.905 307.319C602.554 313.334 601.064 318.615 601.064 318.615L596.935 321.277C596.935 321.277 599.512 312.396 604.817 307.79C611.443 302.017 614.759 296.678 614.759 296.678Z" fill="#95A6DB"/>
<path d="M590.458 301.815C590.458 301.815 585.994 304.283 582.132 315.72C578.994 325.04 580.665 330.257 578.716 335.967L585.266 330.213C586.049 326.101 583.661 323.094 586.096 314.505C588.376 306.462 590.458 301.815 590.458 301.815Z" fill="#95A6DB"/>
<path d="M549.444 333.364C549.444 333.364 547.113 337.912 550.298 349.539C552.897 359.025 557.542 360.728 558.244 362.925L560.77 358.528C558.594 354.692 555.674 354.822 552.901 346.335C550.313 338.371 549.444 333.364 549.444 333.364Z" fill="#95A6DB"/>
<path d="M579.987 308.128C579.987 308.128 576.27 316.099 575.077 321.304C573.369 328.699 575.911 333.026 574.701 340.699L570.038 345.291C570.038 345.291 567.223 336.815 569.705 327.775C573.868 312.602 579.987 308.128 579.987 308.128Z" fill="#95A6DB"/>
<path d="M565.24 310.52C565.564 315.443 565.166 320.386 564.057 325.194C560.592 339.74 567.23 351.72 567.23 351.72L563.835 354.345C563.835 354.345 555.099 345.573 558.353 333.438C561.805 320.62 565.24 310.52 565.24 310.52Z" fill="#95A6DB"/>
<path d="M584.836 331.225C584.836 331.225 588.453 330.36 602.743 333.731C611.9 335.897 609.558 332.099 618.037 335.673C611.308 335.554 608.522 340.174 599.891 338.657C592.986 337.438 585.996 336.76 578.985 336.63L584.836 331.225Z" fill="#95A6DB"/>
<path d="M611.934 343.6C611.934 343.6 605.487 350.146 592.734 347.863C584.882 346.482 576.856 346.399 568.977 347.618L573.541 341.565C573.541 341.565 579.273 338.27 592.307 341.908C601.26 344.412 611.934 343.6 611.934 343.6Z" fill="#95A6DB"/>
<path d="M602.984 354.981C602.984 354.981 596.536 361.528 583.783 359.244C575.931 357.864 567.905 357.782 560.026 359.001L564.588 352.948C564.588 352.948 570.323 349.651 583.354 353.289C592.309 355.795 602.984 354.981 602.984 354.981Z" fill="#95A6DB"/>
<path d="M623.508 321.073C623.508 321.073 619.014 324.349 611.009 322.608C602.896 320.839 596.665 321.969 596.665 321.969L599.226 319.799C599.226 319.799 602.856 317.717 611.088 320.012C616.756 321.585 623.508 321.073 623.508 321.073Z" fill="#95A6DB"/>
<path d="M592.756 325.549C592.756 325.549 599.16 325.577 608.362 327.376C614.175 328.495 622.351 325.792 622.351 325.792C622.351 325.792 615.445 333.548 606.81 331.334C596.908 328.787 586.83 329.089 586.83 329.089L592.756 325.549Z" fill="#95A6DB"/>
<path d="M598.515 320.701C598.515 320.701 604.639 313.028 613.636 312.329C618.963 311.869 624.176 310.524 629.06 308.35C629.06 308.35 623.279 316.327 614.953 316.08C607.267 315.867 601.446 320.343 601.446 320.343L598.515 320.701Z" fill="#95A6DB"/>
<path d="M558.95 363.15L557.684 362.459C561.954 354.663 580.149 329.789 600.897 318.621L601.583 319.9C581.122 330.906 563.171 355.456 558.95 363.15Z" fill="#95A6DB"/>
<path d="M593.411 398.746H35.0273C33.1456 398.746 31.6201 400.269 31.6201 402.147V402.552C31.6201 404.431 33.1456 405.954 35.0273 405.954H593.411C595.293 405.954 596.818 404.431 596.818 402.552V402.147C596.818 400.269 595.293 398.746 593.411 398.746Z" fill="#95A6DB"/>
<path d="M406.487 124.163H406.476L398.133 124.192L396.244 143.864L405.983 148.998L416.369 143.922L414.691 124.192L406.487 124.163Z" fill="#F37A50"/>
<path d="M423.626 108.948C422.356 122.689 412.566 133.019 401.757 132.021C390.948 131.024 383.216 119.082 384.486 105.342C385.756 91.6018 395.547 81.2736 406.355 82.2689C417.164 83.2642 424.897 95.21 423.626 108.948Z" fill="#F37A50"/>
<path d="M398.79 110.254C396.916 112.905 394.546 116.136 394.546 116.136C394.546 116.136 395.4 119.09 399.217 119.344C397.635 118.585 396.094 117.406 396.869 115.294C397.644 113.182 398.79 110.254 398.79 110.254Z" fill="#DE623C"/>
<path d="M427.621 97.7847C428.262 84.7179 416.093 80.9199 416.093 80.9199C416.093 80.9199 418.743 79.8713 417.933 75.9604C416.053 77.209 413.82 77.8189 411.565 77.6996C396.596 76.8194 387.307 79.6433 389.024 85.4191C389.636 87.4736 380.006 88.925 384.867 102.529C385.721 100.867 386.306 94.7263 389.152 93.2664C391.997 91.8065 390.473 96.6338 397.029 95.63C403.647 94.6176 407.861 91.6914 412.808 94.1189C416.774 96.3376 422.252 111.998 422.075 113.087C422.487 110.585 427.34 103.529 427.621 97.7847Z" fill="black"/>
<path d="M384.681 112.808C384.681 112.808 386.25 120.184 387.953 122.102C388.167 118.893 395.282 120.623 398.346 120.768C403.896 121.03 409.308 115.909 411.462 123.083C418.518 123.208 420.458 107.635 420.458 107.635C425.409 122.923 416.724 135.014 399.718 137.26C388.517 138.75 383.099 124.17 384.681 112.808Z" fill="black"/>
<path d="M403.34 124.36C404.391 123.74 405.358 122.987 406.217 122.12C406.336 122.004 406.403 121.845 406.404 121.678C406.406 121.512 406.341 121.352 406.224 121.234C406.107 121.115 405.948 121.048 405.781 121.047C405.614 121.046 405.454 121.111 405.336 121.227C403.233 123.301 401.107 124.345 399.012 124.33C397.429 124.296 395.913 123.69 394.743 122.625C394.627 122.506 394.468 122.438 394.301 122.435C394.135 122.433 393.974 122.497 393.854 122.613C393.735 122.729 393.667 122.887 393.664 123.053C393.662 123.22 393.726 123.38 393.842 123.499C395.238 124.811 397.074 125.556 398.991 125.59C400.525 125.58 402.028 125.155 403.34 124.36Z" fill="#DE623C"/>
<path d="M407.292 109.752C407.68 109.76 408.061 109.653 408.388 109.445C408.716 109.237 408.974 108.937 409.131 108.583C409.287 108.229 409.335 107.836 409.269 107.454C409.202 107.073 409.023 106.72 408.756 106.439C408.488 106.159 408.144 105.964 407.765 105.878C407.387 105.793 406.991 105.822 406.629 105.961C406.267 106.1 405.954 106.343 405.73 106.659C405.506 106.975 405.381 107.35 405.37 107.738C405.363 107.996 405.407 108.253 405.5 108.495C405.593 108.736 405.733 108.956 405.911 109.144C406.09 109.331 406.304 109.481 406.541 109.585C406.778 109.69 407.033 109.746 407.292 109.752Z" fill="black"/>
<path d="M391.639 109.329C392.027 109.338 392.409 109.231 392.736 109.023C393.064 108.815 393.322 108.515 393.478 108.16C393.635 107.806 393.683 107.413 393.616 107.031C393.549 106.65 393.371 106.296 393.103 106.016C392.835 105.736 392.49 105.541 392.112 105.456C391.733 105.371 391.338 105.4 390.975 105.539C390.613 105.678 390.301 105.922 390.077 106.238C389.853 106.555 389.728 106.93 389.718 107.317C389.711 107.576 389.756 107.833 389.849 108.074C389.941 108.315 390.081 108.535 390.26 108.722C390.438 108.909 390.652 109.059 390.889 109.163C391.126 109.267 391.381 109.324 391.639 109.329Z" fill="black"/>
<path d="M388.279 105.509C388.443 105.514 388.605 105.476 388.749 105.399C388.894 105.322 389.016 105.209 389.103 105.07C389.611 104.267 390.211 103.791 390.89 103.661C392.06 103.435 393.191 104.243 393.204 104.252C393.406 104.4 393.658 104.462 393.905 104.424C394.153 104.387 394.375 104.253 394.523 104.051C394.672 103.85 394.734 103.598 394.696 103.351C394.659 103.104 394.524 102.882 394.323 102.734C394.252 102.681 392.54 101.436 390.553 101.807C389.334 102.035 388.309 102.796 387.506 104.064C387.44 104.169 387.395 104.286 387.374 104.408C387.353 104.53 387.357 104.655 387.384 104.776C387.412 104.896 387.463 105.011 387.535 105.112C387.607 105.213 387.698 105.298 387.803 105.364C387.945 105.455 388.11 105.505 388.279 105.509Z" fill="black"/>
<path d="M411.114 106.222C411.329 106.229 411.539 106.162 411.71 106.032C411.909 105.881 412.04 105.657 412.074 105.409C412.108 105.161 412.042 104.91 411.891 104.711C410.694 103.134 409.344 102.256 407.882 102.102C406.704 101.996 405.53 102.347 404.605 103.082C404.415 103.245 404.298 103.477 404.279 103.726C404.26 103.975 404.341 104.222 404.504 104.411C404.667 104.601 404.899 104.718 405.148 104.737C405.398 104.756 405.645 104.675 405.835 104.513C406.372 104.109 407.039 103.918 407.709 103.978C408.623 104.084 409.526 104.713 410.388 105.849C410.473 105.962 410.583 106.054 410.708 106.118C410.834 106.183 410.973 106.218 411.114 106.222Z" fill="black"/>
<path d="M420.641 107.689C418.379 110.019 418.09 113.405 420.001 115.253C421.912 117.101 425.291 116.715 427.554 114.386C429.817 112.056 430.116 108.672 428.195 106.822C426.273 104.972 422.915 105.362 420.641 107.689Z" fill="#F37A50"/>
<path d="M423.032 114.219C422.927 114.184 422.832 114.125 422.755 114.046C421.598 112.887 421.301 111.444 421.963 110.186C422.624 108.929 424.127 108.144 425.498 108.394C425.592 108.408 425.682 108.441 425.763 108.491C425.844 108.54 425.914 108.606 425.97 108.683C426.025 108.76 426.064 108.848 426.085 108.94C426.106 109.033 426.107 109.129 426.09 109.222C426.073 109.316 426.038 109.405 425.986 109.484C425.934 109.564 425.866 109.632 425.787 109.685C425.708 109.738 425.62 109.774 425.526 109.792C425.433 109.81 425.337 109.809 425.244 109.79C424.492 109.653 423.604 110.118 423.22 110.855C422.836 111.593 423.045 112.337 423.76 113.053C423.873 113.166 423.944 113.314 423.963 113.472C423.981 113.631 423.945 113.791 423.861 113.927C423.777 114.063 423.649 114.166 423.499 114.221C423.348 114.275 423.184 114.278 423.032 114.227V114.219Z" fill="#DE623C"/>
<path d="M391.259 381.531C383.883 391.691 365.767 385.457 366.367 399.199C393.906 399.024 405.364 399.199 405.364 399.199C405.328 396.043 404.783 388.543 404.149 385.619L391.259 381.531Z" fill="#201D40"/>
<path d="M431.83 381.531C424.452 391.691 406.338 385.457 406.935 399.199C434.475 399.024 445.935 399.199 445.935 399.199C445.898 396.043 445.354 388.543 444.718 385.619L431.83 381.531Z" fill="#201D40"/>
<path d="M373.37 226.479C373.37 226.479 370.729 293.663 372.546 308.141C374.362 322.618 384.313 338.831 383.583 386.727C392.564 388.971 405.572 386.727 405.572 386.727C405.572 386.727 407.493 332.573 398.006 308.388C401.868 284.893 414.254 231.08 414.254 231.08L373.37 226.479Z" fill="#748DDB"/>
<path d="M392.633 228.186C392.633 228.186 401.666 301.301 406.083 315.167C410.5 329.033 417.148 339.304 425.151 386.484C434.38 386.944 442.813 387.989 442.813 387.989C442.813 387.989 447.025 327.565 432.651 313.957C432.164 290.131 431.658 228.654 431.658 228.654L392.633 228.186Z" fill="#89A2F0"/>
<path d="M437.144 145.205C437.144 145.205 421.458 139.721 416.223 142.236C399.968 150.049 396.241 142.236 396.241 142.236C390.541 140.974 377.074 140.974 377.074 140.974C375.366 163.685 370.271 236.212 370.271 236.212C370.271 236.212 389.838 240.846 406.198 240.963C422.559 240.856 439.211 236.502 439.211 236.502C439.211 236.502 438.336 204.746 437.61 192.952C437.859 179.725 437.144 162.636 437.144 145.205Z" fill="#E62552"/>
<path d="M437.14 145.205C451.469 151.36 469.056 165.545 479.877 188.016C483.588 195.72 465.946 197.276 462.427 194.239C458.909 191.202 437.14 168.516 437.14 168.516V145.205Z" fill="#C4204A"/>
<path d="M377.077 140.977L309.215 168.771L312.603 185.859L375.48 168.025L377.077 140.977Z" fill="#C4204A"/>
<path d="M509.269 381.449C501.726 391.492 483.204 385.33 483.819 398.913C511.982 398.738 523.687 398.913 523.687 398.913C523.651 395.793 523.094 388.389 522.445 385.486L509.269 381.449Z" fill="black"/>
<path d="M551.407 381.713C543.866 391.755 525.345 385.594 525.957 399.177C554.122 399.004 565.827 399.177 565.827 399.177C565.791 396.058 565.234 388.652 564.585 385.75L551.407 381.713Z" fill="black"/>
<path d="M496.23 228.128C496.23 228.128 488.587 292.784 490.445 307.094C492.302 321.403 500.775 339.839 500.03 387.172C509.21 389.391 523.688 386.795 523.688 386.795C523.688 386.795 525.661 333.272 515.956 309.368C519.901 286.137 532.567 232.962 532.567 232.962L496.23 228.128Z" fill="#201D40"/>
<path d="M513.61 229.886C513.61 229.886 522.844 302.149 527.363 315.855C531.882 329.561 537.736 339.395 545.919 386.023C555.355 386.479 569.56 385.916 569.56 385.916C569.56 385.916 565.828 328.632 551.134 315.182C550.637 291.635 553.51 230.357 553.51 230.357L513.61 229.886Z" fill="#2C2858"/>
<path d="M539.887 103.993C540.737 90.5719 532.867 79.1512 522.309 78.4844C511.751 77.8175 502.502 88.1569 501.651 101.578C500.801 114.999 508.671 126.42 519.229 127.087C529.787 127.754 539.036 117.414 539.887 103.993Z" fill="#F37A50"/>
<path d="M509.831 105.439C509.637 105.782 509.346 106.06 508.995 106.238C508.643 106.416 508.246 106.486 507.855 106.439C507.463 106.392 507.094 106.23 506.795 105.974C506.496 105.718 506.279 105.378 506.173 104.999C506.067 104.62 506.075 104.218 506.198 103.844C506.321 103.47 506.552 103.14 506.862 102.897C507.172 102.654 507.547 102.508 507.941 102.478C508.334 102.448 508.727 102.535 509.071 102.728C509.299 102.856 509.5 103.028 509.662 103.233C509.824 103.439 509.943 103.674 510.014 103.926C510.085 104.178 510.105 104.441 510.073 104.701C510.042 104.96 509.959 105.211 509.831 105.439Z" fill="black"/>
<path d="M525.995 105.617C525.786 105.989 525.471 106.29 525.091 106.483C524.71 106.676 524.281 106.752 523.857 106.701C523.434 106.651 523.034 106.476 522.71 106.199C522.386 105.922 522.151 105.555 522.036 105.145C521.92 104.735 521.929 104.3 522.061 103.894C522.193 103.489 522.443 103.132 522.778 102.869C523.114 102.605 523.52 102.447 523.945 102.414C524.371 102.381 524.797 102.474 525.169 102.682C525.668 102.963 526.035 103.429 526.19 103.979C526.345 104.529 526.275 105.119 525.995 105.617Z" fill="black"/>
<path d="M514.423 105.815C513.481 108.835 512.258 112.54 512.258 112.54C512.258 112.54 513.929 115.027 517.554 114.117C515.857 113.887 514.072 113.264 514.16 111.056C514.247 108.848 514.423 105.815 514.423 105.815Z" fill="#DE623C"/>
<path d="M508.27 99.1516C508.146 99.2 508.012 99.2155 507.881 99.1964C507.75 99.1773 507.625 99.1244 507.521 99.0429C507.497 99.0259 506.75 98.4717 505.932 98.6337C505.356 98.7488 504.833 99.2049 504.378 99.9934C504.272 100.16 504.106 100.278 503.914 100.325C503.722 100.372 503.52 100.343 503.349 100.244C503.178 100.145 503.052 99.9848 502.996 99.7955C502.941 99.6063 502.961 99.4031 503.052 99.2283C503.744 98.0348 504.619 97.3294 505.655 97.1311C507.173 96.8413 508.413 97.8004 508.464 97.8409C508.622 97.9662 508.723 98.1483 508.747 98.3478C508.77 98.5474 508.714 98.7481 508.59 98.9065C508.508 99.0157 508.397 99.1004 508.27 99.1516Z" fill="#201D40"/>
<path d="M523.034 98.6185C523.158 98.6663 523.292 98.6814 523.423 98.6624C523.554 98.6434 523.678 98.5908 523.783 98.5098C523.805 98.4928 524.554 97.9365 525.372 98.1006C525.946 98.2136 526.469 98.6718 526.924 99.4583C527.025 99.6338 527.192 99.7619 527.388 99.8145C527.584 99.867 527.793 99.8397 527.969 99.7385C528.144 99.6373 528.273 99.4706 528.325 99.2749C528.378 99.0793 528.351 98.8708 528.249 98.6953C527.56 97.5017 526.685 96.7963 525.647 96.5981C524.131 96.3061 522.891 97.2673 522.84 97.3078C522.682 97.4328 522.58 97.6148 522.556 97.8143C522.532 98.0139 522.588 98.2148 522.712 98.3734C522.796 98.4821 522.907 98.5667 523.034 98.6185Z" fill="#201D40"/>
<path d="M535.873 112.278C530.355 105.818 534.266 94.8826 534.266 94.8826C531.115 94.5586 530.015 95.7351 530.015 95.7351C527.996 92.438 529.065 89.8357 529.065 89.8357C522.432 87.958 519.644 92.3932 514.011 94.3391C506.293 97.001 496.236 94.7888 494.398 85.2492C494.338 84.9408 494.367 84.6216 494.482 84.3291C494.597 84.0366 494.793 83.783 495.047 83.5979C495.302 83.4129 495.604 83.3041 495.918 83.2844C496.232 83.2647 496.545 83.3348 496.821 83.4866C498.168 84.2297 499.717 84.5282 501.244 84.3391C501.244 84.3391 499.41 82.6341 499.079 80.0638C498.896 78.6465 500.491 77.7194 501.673 78.525C503.447 79.7313 506.618 80.7309 511.953 79.1942C515.503 78.1733 523.225 71.6005 528.489 72.2377C532.793 72.7578 536.48 76.0186 538.41 81.0058C538.41 81.0058 548.87 81.0889 551.005 92.3719C553.097 103.455 535.888 117.127 535.888 117.127C535.888 117.127 537.293 114.215 535.873 112.278Z" fill="#201D40"/>
<path d="M510.126 117.588C510.056 117.497 510.014 117.388 510.006 117.273C509.998 117.159 510.024 117.045 510.081 116.945C510.138 116.845 510.223 116.764 510.325 116.712C510.428 116.66 510.543 116.64 510.657 116.653C514.325 117.12 518.039 117.096 521.701 116.583C521.815 116.569 521.93 116.588 522.033 116.639C522.136 116.69 522.221 116.769 522.279 116.868C522.337 116.967 522.365 117.081 522.359 117.195C522.353 117.309 522.313 117.42 522.245 117.512C521.306 118.791 519.361 120.741 516.206 120.76C513.051 120.779 511.078 118.859 510.126 117.588Z" fill="white"/>
<path d="M524.102 110.455C520.614 110.455 517.774 107.98 517.774 104.939C517.774 101.898 520.618 99.4233 524.102 99.4233C527.586 99.4233 530.43 101.898 530.43 104.939C530.43 107.98 527.597 110.455 524.102 110.455ZM524.102 100.834C521.393 100.834 519.192 102.676 519.192 104.939C519.192 107.202 521.395 109.042 524.102 109.042C526.809 109.042 529.012 107.2 529.012 104.939C529.012 102.678 526.815 100.834 524.102 100.834Z" fill="black"/>
<path d="M507.706 110.06C504.471 110.06 501.841 107.766 501.841 104.945C501.841 102.123 504.471 99.8296 507.706 99.8296C510.94 99.8296 513.57 102.123 513.57 104.945C513.57 107.766 510.938 110.06 507.706 110.06ZM507.706 101.147C505.195 101.147 503.152 102.852 503.152 104.949C503.152 107.046 505.195 108.751 507.706 108.751C510.216 108.751 512.259 107.046 512.259 104.949C512.259 102.852 510.227 101.147 507.706 101.147Z" fill="black"/>
<path d="M517.883 105.817C515.554 104.813 513.231 105.525 513.207 105.531L512.618 103.707C514.61 103.148 516.731 103.27 518.645 104.054L517.883 105.817Z" fill="black"/>
<path d="M529.261 105.493L529.25 103.573L535.555 103.741L535.565 105.664L529.261 105.493Z" fill="black"/>
<path d="M534.939 103.442C532.343 105.256 531.446 108.444 532.932 110.565C534.418 112.685 537.729 112.93 540.323 111.117C542.917 109.303 543.815 106.115 542.327 103.994C540.839 101.873 537.533 101.626 534.939 103.442Z" fill="#F37A50"/>
<path d="M536.028 110.126C535.935 110.073 535.855 110 535.795 109.912C534.9 108.591 534.881 107.155 535.746 106.076C536.61 104.998 538.194 104.518 539.46 105.01C539.545 105.043 539.623 105.092 539.688 105.155C539.754 105.218 539.807 105.293 539.844 105.376C539.881 105.459 539.901 105.548 539.903 105.639C539.905 105.73 539.889 105.82 539.856 105.905C539.824 105.989 539.774 106.067 539.712 106.132C539.649 106.198 539.574 106.251 539.491 106.287C539.407 106.324 539.318 106.344 539.227 106.346C539.136 106.348 539.046 106.333 538.961 106.3C538.267 106.031 537.33 106.313 536.826 106.939C536.322 107.566 536.384 108.325 536.939 109.141C537.027 109.27 537.068 109.425 537.056 109.581C537.044 109.737 536.98 109.884 536.874 109.998C536.768 110.113 536.626 110.189 536.472 110.213C536.318 110.237 536.159 110.209 536.023 110.132L536.028 110.126Z" fill="#DE623C"/>
<path d="M509.993 132.688L522.604 130.284L535.244 132.537L522.74 148.112L509.993 132.688Z" fill="#95A6DB"/>
<path d="M537.49 136.394L506.789 139.037L494.928 139.889L496.423 210.023L494.977 231.95C511.416 235.716 537.757 233.015 555.032 228.938L552.146 204.706L555.989 141.117L537.49 136.394Z" fill="#3F964F"/>
<path d="M514.397 139.889C519.99 143.644 526.566 144.013 532.466 139.889V121.588L514.397 121.891V139.889Z" fill="#F37A50"/>
<path d="M522.681 142.685C522.681 142.685 518.411 147.911 514.165 149.548L505.672 138.423L509.995 132.696L522.681 142.685Z" fill="white"/>
<path d="M522.677 142.688C522.677 142.688 525.821 147.059 531.276 149.448L539.905 137.023L535.242 132.547L522.677 142.688Z" fill="white"/>
<path d="M565.169 217.953L559.215 222.215C559.215 222.215 556.653 218.479 553.852 219.04L554.514 224.604C554.514 224.604 554.482 228.441 545.855 229.142C538.81 231.883 544.423 234.585 542.608 236.269C539.929 238.752 549.038 242.526 555.763 239.319C564.462 235.167 564.343 231.544 564.343 231.544L569.106 225.693L565.169 217.953Z" fill="#F37A50"/>
<path d="M555.98 141.107C555.98 141.107 584.8 156.086 598.367 188.454C589.885 200.372 578.628 193.584 578.628 193.584L553.894 168.435L555.98 141.107Z" fill="#3F964F"/>
<path d="M560.671 219.222L578.629 193.584C578.629 193.584 582.408 183.467 598.368 188.454C599.476 196.864 597.132 209.554 569.844 229.224C567.838 224.571 560.671 219.222 560.671 219.222Z" fill="#3F964F"/>
<path d="M494.926 139.888C494.926 139.888 466.139 154.819 452.53 187.168C460.992 199.103 472.26 192.326 472.26 192.326L497.033 167.196L494.926 139.888Z" fill="#3F964F"/>
<path d="M39.5417 369.34C38.2337 363.336 33.7719 358.785 26.1562 355.688C29.0966 363.367 33.5584 367.918 39.5417 369.34Z" fill="#95A6DB"/>
<path d="M48.8465 374.514C50.0904 368.496 47.8616 362.529 42.1602 356.611C41.7275 364.823 43.9563 370.791 48.8465 374.514Z" fill="#95A6DB"/>
<path d="M13.8037 355.227C17.5952 361.052 22.094 364.036 27.3002 364.178C25.1426 359.427 20.6437 356.443 13.8037 355.227Z" fill="#95A6DB"/>
<path d="M53.1843 364.294C52.8855 371.238 54.8168 376.272 58.9783 379.396C59.9802 374.281 58.0489 369.247 53.1843 364.294Z" fill="#95A6DB"/>
<path d="M4.75586 357.947C8.74089 362.188 12.886 363.979 17.1913 363.32C14.722 359.738 10.5769 357.947 4.75586 357.947Z" fill="#95A6DB"/>
<path d="M13.5413 366.054C9.95191 363.589 5.43815 363.397 0 365.478C5.25028 368.013 9.76404 368.205 13.5413 366.054Z" fill="#95A6DB"/>
<path d="M39.2266 390.962C48.3551 393.889 55.7559 393.157 61.4289 388.767C55.0173 385.587 47.6165 386.319 39.2266 390.962Z" fill="#95A6DB"/>
<path d="M41.2887 373.662C35.4649 372.994 29.9783 375.623 24.8291 381.548C32.664 381.235 38.1505 378.607 41.2887 373.662Z" fill="#95A6DB"/>
<path d="M17.9053 376.806C24.7239 376.546 29.4974 374.262 32.2258 369.956C27.1605 369.37 22.387 371.654 17.9053 376.806Z" fill="#95A6DB"/>
<path d="M22.4133 368.002C17.3509 367.427 12.5774 369.71 8.09277 374.852C14.9143 374.591 19.6878 372.308 22.4133 368.002Z" fill="#95A6DB"/>
<path d="M72.6767 394.368C60.3181 382.717 60.6895 384.072 52.0712 378.262C49.7442 376.692 47.4322 375.271 45.1351 374C40.3965 371.458 35.396 369.438 30.2211 367.972C24.1895 366.125 19.522 365.379 16.2187 365.732L15.8003 365.617C15.7501 365.58 15.6882 365.562 15.6256 365.565C15.5631 365.569 15.5039 365.595 15.4587 365.639C15.3986 365.649 15.3412 365.671 15.2899 365.704C15.2385 365.737 15.1943 365.78 15.1599 365.83C15.1225 365.957 15.1159 366.091 15.1406 366.22C15.15 366.282 15.1721 366.341 15.2055 366.394C15.239 366.447 15.283 366.492 15.3349 366.527L15.5612 366.679C15.6892 366.713 15.8228 366.721 15.954 366.702L15.986 366.753L16.2721 366.698C19.5057 366.429 24.0465 367.175 29.8945 368.936C35.005 370.42 39.9374 372.458 44.6035 375.014C46.9612 376.275 49.2521 377.656 51.467 379.153L52.0435 379.545C45.9079 377.556 39.4088 379.19 32.546 384.447C41.0739 385.841 47.5731 384.207 52.0435 379.545C60.4761 385.3 59.857 383.778 71.8974 395.14L72.6767 394.368Z" fill="#95A6DB"/>
<path d="M68.4445 355.641C73.8129 348.165 74.4007 338.645 70.2078 327.082C64.6373 338.06 64.0495 347.579 68.4445 355.641Z" fill="#95A6DB"/>
<path d="M60.6058 339.679C64.4101 332.202 63.6231 323.546 58.2447 313.709C54.7379 324.368 55.5249 333.025 60.6058 339.679Z" fill="#95A6DB"/>
<path d="M52.0155 323.899C54.5432 316.345 52.5926 308.317 46.1639 299.816C44.3436 310.327 46.2941 318.355 52.0155 323.899Z" fill="#95A6DB"/>
<path d="M32.7012 291.14C33.0556 300.147 36.0899 306.447 41.8041 310.04C42.5513 303.33 39.517 297.03 32.7012 291.14Z" fill="#95A6DB"/>
<path d="M20.8066 288.183C22.4377 295.548 25.8676 300.287 31.0966 302.398C30.7251 296.77 27.2951 292.032 20.8066 288.183Z" fill="#95A6DB"/>
<path d="M25.2208 303.031C22.8596 297.916 17.9566 294.719 10.5117 293.44C14.6818 299.729 19.5848 302.926 25.2208 303.031Z" fill="#95A6DB"/>
<path d="M37.3115 347.789C45.5406 357.093 54.27 361.173 63.4996 360.031C58.4742 352.246 49.7448 348.166 37.3115 347.789Z" fill="#95A6DB"/>
<path d="M51.0914 329.878C45.0456 325.281 37.1879 324.576 27.5186 327.761C36.4536 332.606 44.3112 333.312 51.0914 329.878Z" fill="#95A6DB"/>
<path d="M22.9414 317.904C30.7151 322.128 37.5515 322.742 43.4508 319.747C38.1948 315.743 31.3584 315.129 22.9414 317.904Z" fill="#95A6DB"/>
<path d="M33.819 311.079C28.553 307.087 21.7166 306.472 13.3096 309.236C21.0889 313.458 27.9254 314.073 33.819 311.079Z" fill="#95A6DB"/>
<path d="M72.3168 373.715C66.2816 352.552 65.7949 354.308 60.0479 342.128C58.498 338.837 56.8648 335.724 55.1484 332.788C51.5558 326.819 47.3254 321.257 42.5315 316.199C37.0322 310.156 32.3263 306.235 28.4138 304.436L28.0296 304.033C28.0004 303.957 27.945 303.894 27.8735 303.855C27.8019 303.816 27.7188 303.804 27.6389 303.82C27.5634 303.79 27.4828 303.776 27.4017 303.779C27.3206 303.781 27.2409 303.799 27.1671 303.833C27.0404 303.95 26.9438 304.097 26.8853 304.259C26.8546 304.334 26.8398 304.415 26.842 304.496C26.8442 304.577 26.8633 304.657 26.8981 304.73L27.0497 305.048C27.1708 305.172 27.3161 305.271 27.4767 305.338V305.416L27.831 305.542C31.6154 307.381 36.1804 311.217 41.526 317.051C46.2361 322.089 50.3802 327.625 53.8846 333.562C55.6774 336.527 57.3163 339.583 58.7947 342.716L59.1747 343.534C53.6569 337.26 45.331 334.78 34.1971 336.096C42.7749 343.293 51.1008 345.772 59.1747 343.534C64.7509 355.533 65.0733 353.421 70.9505 374.056L72.3168 373.715Z" fill="#95A6DB"/>
<path d="M105.695 91.9749L107.616 85.1037C107.616 85.1037 112.449 86.4229 113.632 83.1472L108.91 80.9647C108.91 80.9647 107.402 77.4822 113.534 71.6809C117.221 65.2871 111.29 66.6703 111.64 64.2811C112.155 60.7581 103.741 64.5113 100.586 71.0543C96.5126 79.5197 97.9643 88.4945 97.9643 88.4945L105.695 91.9749Z" fill="#F37A50"/>
<path d="M225.101 162.933L227.449 157.034C227.449 157.034 223.318 149.312 228.17 147.616C229.479 147.158 228.104 153.191 230.758 152.194C231.313 151.981 232.143 149.312 233.106 145.203C233.209 140.917 236.797 139.112 238.708 138.982C242.267 138.741 245.525 144.423 243.277 151.324C240.367 160.256 233.108 165.744 233.108 165.744L225.101 162.933Z" fill="#F37A50"/>
<path d="M164.293 383.556C171.272 393.36 188.406 387.343 187.84 400.596C161.78 400.425 150.952 400.596 150.952 400.596C150.986 397.552 151.501 390.327 152.101 387.499L164.293 383.556Z" fill="black"/>
<path d="M125.316 383.812C132.295 393.615 149.44 387.597 148.863 400.851C122.806 400.681 111.976 400.851 111.976 400.851C112.01 397.805 112.524 390.583 113.126 387.754L125.316 383.812Z" fill="black"/>
<path d="M176.36 233.968C176.36 233.968 180.591 296.77 178.87 310.732C177.15 324.694 171.065 342.601 171.755 388.775C163.26 390.941 150.955 388.775 150.955 388.775C150.955 388.775 149.13 336.559 158.109 313.232C154.459 290.577 142.738 238.684 142.738 238.684L176.36 233.968Z" fill="#0E6A41"/>
<path d="M163.744 235.683C163.744 235.683 155.205 306.19 151.018 319.562C146.832 332.933 140.886 342.347 133.316 387.841C124.587 388.287 111.979 387.918 111.979 387.918C111.979 387.918 115.431 332.03 129.025 318.905C129.476 295.926 126.811 236.137 126.811 236.137L163.744 235.683Z" fill="#3F964F"/>
<path d="M130.767 151C130.767 151 129.994 151.185 100.363 131.283C100.353 131.28 100.343 131.28 100.333 131.283L84.6291 135.868C84.6245 135.869 84.6202 135.871 84.6164 135.874C84.6127 135.877 84.6096 135.881 84.6074 135.885C84.6052 135.889 84.6039 135.894 84.6036 135.898C84.6033 135.903 84.604 135.908 84.6056 135.912C88.8753 149.052 128.825 178.964 128.825 178.964L130.767 151Z" fill="#95A6DB"/>
<path d="M145.727 143.297L158.092 141.307L170.356 143.856L157.724 158.698L145.727 143.297Z" fill="#607EDB"/>
<path d="M150.266 150.511C155.159 154.324 160.336 155.957 165.718 152.093L166.458 133.097L150.325 132.905L150.266 150.511Z" fill="#F37A50"/>
<path d="M174 150.301L170.213 149.082L170.358 143.848L160.679 152.733L157.82 153.385L154.99 152.613L145.722 143.3L145.631 148.534L142.428 149.402L128.829 151.267V211.618L123.755 239.538C139.672 243.67 163.386 243.892 180.347 240.39L177.542 214.955L182.941 153.739L174 150.301Z" fill="#95A6DB"/>
<path d="M158.406 160.118C158.406 160.118 156.698 197.034 153.923 215.921L158.874 221.903C158.874 221.903 163.796 217.244 165.131 216.403C168.16 183.097 162.699 160.292 162.699 160.292L158.406 160.118Z" fill="#E62552"/>
<path d="M155.291 153.698L160.506 152.355L164.324 153.877L162.695 160.292L158.079 160.277L155.291 153.698Z" fill="#C4204A"/>
<path d="M160.508 152.356C160.508 152.356 156.309 157.898 152.483 160.112L142.663 149.716L145.684 143.292L160.508 152.356Z" fill="white"/>
<path d="M160.507 152.355C160.507 152.355 163.831 157.179 168.156 160.375L175.805 150.81L170.359 143.856L160.507 152.355Z" fill="white"/>
<path d="M97.2248 86.9883C102.861 88.0987 105.764 88.8041 109.44 90.8928C103.407 121.741 104.061 135.017 97.2398 140.995C91.5526 145.973 85.005 141.602 84.3091 135.061C83.3911 126.434 92.7417 100.933 97.2248 86.9883Z" fill="#95A6DB"/>
<path d="M182.935 153.735C190.56 150.346 216.546 181.083 216.546 181.083L223.516 158.359L237.441 165.793C237.441 165.793 228.947 202.799 219.481 204.369C210.643 205.836 180.569 183.636 180.569 183.636L182.935 153.735Z" fill="#95A6DB"/>
<path d="M145.285 132.219C137.346 133.158 133.196 123.035 133.196 123.035C128.33 122.227 129.156 117.398 129.156 117.398C126.849 116.69 123.775 114.218 124.765 109.823C125.602 106.1 129.259 106.275 129.731 101.916C130.109 98.4186 127.596 89.8466 138.776 89.1838C138.776 89.1838 139.054 82.6834 145.77 81.1297C154.006 79.2265 156.041 84.1689 159.646 85.0555C163.677 86.0466 172.349 82.3467 173.476 91.6625C173.476 91.6625 179.24 91.7968 181.878 95.9805C184.342 99.8764 182.897 104.857 181.238 106.688C181.238 106.688 185.854 108.259 186.912 112.624C187.623 115.55 186.485 119.333 183.561 121.168C182.465 121.866 181.223 122.303 179.931 122.447C178.046 122.754 177.927 127.794 176.266 128.768C173.6 130.33 170.703 131.432 167.759 132.306L145.285 132.219Z" fill="#2C2858"/>
<path d="M175.814 112.862C176.73 126.534 169.213 138.167 159.028 138.847C148.843 139.526 139.836 128.996 138.924 115.324C138.013 101.652 146.155 92.8153 156.342 92.144C166.53 91.4726 174.898 99.1921 175.814 112.862Z" fill="#F37A50"/>
<path d="M149.958 119.892C149.571 119.918 149.184 119.828 148.848 119.635C148.511 119.441 148.24 119.153 148.068 118.805C147.896 118.458 147.831 118.067 147.881 117.682C147.931 117.298 148.094 116.937 148.35 116.645C148.605 116.353 148.942 116.144 149.317 116.043C149.692 115.942 150.088 115.954 150.456 116.078C150.824 116.202 151.147 116.432 151.384 116.739C151.621 117.046 151.762 117.417 151.788 117.804C151.805 118.061 151.772 118.319 151.689 118.563C151.607 118.807 151.477 119.033 151.307 119.227C151.137 119.421 150.93 119.579 150.699 119.693C150.468 119.808 150.216 119.875 149.958 119.892Z" fill="black"/>
<path d="M165.582 118.851C165.194 118.877 164.807 118.788 164.469 118.594C164.132 118.401 163.86 118.112 163.688 117.764C163.515 117.416 163.45 117.024 163.5 116.639C163.55 116.254 163.713 115.893 163.97 115.6C164.226 115.308 164.563 115.098 164.938 114.997C165.314 114.896 165.711 114.909 166.079 115.033C166.448 115.158 166.771 115.388 167.008 115.696C167.245 116.004 167.386 116.375 167.411 116.762C167.429 117.02 167.395 117.278 167.313 117.522C167.23 117.766 167.1 117.991 166.93 118.185C166.76 118.379 166.554 118.538 166.322 118.652C166.091 118.766 165.839 118.834 165.582 118.851Z" fill="black"/>
<path d="M168.788 114.899C168.625 114.91 168.461 114.878 168.313 114.806C168.166 114.735 168.04 114.627 167.947 114.492C167.409 113.709 166.79 113.26 166.107 113.157C164.928 112.978 163.829 113.829 163.818 113.837C163.622 113.985 163.376 114.05 163.132 114.02C162.889 113.989 162.667 113.865 162.513 113.674C162.36 113.482 162.287 113.239 162.311 112.995C162.335 112.751 162.453 112.525 162.64 112.367C162.708 112.311 164.369 110.998 166.369 111.301C167.597 111.482 168.651 112.2 169.503 113.432C169.598 113.569 169.655 113.729 169.668 113.895C169.68 114.061 169.649 114.227 169.576 114.377C169.503 114.527 169.392 114.655 169.254 114.747C169.115 114.84 168.954 114.895 168.788 114.905V114.899Z" fill="#2C2858"/>
<path d="M146.002 116.518C145.824 116.529 145.648 116.49 145.492 116.406C145.336 116.321 145.207 116.194 145.119 116.04C145.032 115.886 144.99 115.71 144.998 115.533C145.006 115.356 145.064 115.185 145.165 115.039C146.298 113.415 147.611 112.481 149.067 112.268C150.24 112.116 151.427 112.421 152.381 113.121C152.478 113.198 152.559 113.293 152.619 113.401C152.679 113.509 152.718 113.628 152.732 113.751C152.746 113.874 152.736 113.998 152.702 114.117C152.668 114.236 152.611 114.347 152.534 114.444C152.457 114.541 152.362 114.622 152.254 114.682C152.145 114.743 152.026 114.781 151.903 114.795C151.78 114.809 151.655 114.799 151.536 114.765C151.417 114.732 151.306 114.675 151.209 114.598C150.656 114.215 149.981 114.051 149.315 114.137C148.405 114.28 147.53 114.945 146.713 116.113C146.632 116.23 146.526 116.326 146.403 116.397C146.28 116.467 146.143 116.508 146.002 116.518Z" fill="#2C2858"/>
<path d="M159.707 119.854C162.365 121.51 163.206 122.199 164.225 122.751C163.699 125.055 160.226 126.415 159.199 126.221C161.59 124.84 161.827 123.169 161.827 123.169L159.707 119.854Z" fill="#DE623C"/>
<path d="M142.213 117.571C144.117 120.406 143.953 123.846 141.848 125.255C139.743 126.663 136.494 125.506 134.589 122.669C132.685 119.833 132.852 116.395 134.954 114.997C137.057 113.599 140.311 114.737 142.213 117.571Z" fill="#F37A50"/>
<path d="M140.334 122.949C140.251 122.955 140.167 122.944 140.089 122.917C139.932 122.86 139.804 122.745 139.731 122.596C139.658 122.447 139.646 122.275 139.698 122.117C140.076 121.028 140.029 120.176 139.559 119.581C138.833 118.667 137.254 118.475 136.124 118.588C136.042 118.596 135.959 118.588 135.88 118.564C135.801 118.541 135.727 118.502 135.664 118.45C135.6 118.397 135.547 118.333 135.507 118.261C135.468 118.188 135.444 118.108 135.436 118.026C135.428 117.944 135.436 117.862 135.459 117.783C135.483 117.704 135.522 117.63 135.574 117.566C135.627 117.503 135.691 117.45 135.764 117.411C135.836 117.372 135.916 117.347 135.998 117.339C137.516 117.186 139.506 117.49 140.546 118.803C141.064 119.458 141.542 120.634 140.887 122.527C140.847 122.644 140.773 122.746 140.675 122.821C140.576 122.897 140.458 122.941 140.334 122.949Z" fill="#DE623C"/>
<path d="M152.001 129.393C151.93 129.295 151.889 129.178 151.884 129.058C151.879 128.937 151.91 128.818 151.973 128.714C152.035 128.611 152.127 128.528 152.237 128.477C152.346 128.426 152.468 128.407 152.588 128.425C156.424 129.026 160.323 129.113 164.182 128.683C164.302 128.671 164.423 128.694 164.53 128.75C164.637 128.806 164.725 128.893 164.783 128.998C164.841 129.104 164.867 129.225 164.857 129.345C164.847 129.465 164.801 129.579 164.727 129.674C163.702 130.991 161.601 132.977 158.288 132.903C154.975 132.828 152.968 130.752 152.001 129.393Z" fill="white"/>
<path d="M132.451 105.591L154.246 87.3477L178.922 99.3063L176.25 116.957C175.47 108.842 170.532 111.572 167.909 109.227C165.249 106.87 164.038 103.13 157.958 106.576C157.958 106.576 152.903 103.245 150.439 108.128C148.533 111.902 145.83 111.237 143.157 111.486C140.004 111.781 140.809 114.828 138.888 114.769L132.451 105.591Z" fill="#2C2858"/>
<path d="M107.646 80.9604C108.988 81.0457 109.795 81.1629 110.75 79.4856C111.704 77.8083 112.568 75.5171 113.706 76.9003C114.844 78.2835 114.323 82.1923 113.442 83.4945C111.296 83.7545 107.646 80.9604 107.646 80.9604Z" fill="#F37A50"/>
<path d="M261.027 138.461C252.473 138.382 222.534 184.922 222.534 184.922L217.084 239.53L231.033 240.078L244.011 192.369L257.548 185.244L261.027 138.461Z" fill="#201D40"/>
<path d="M328.389 227.758L328.558 235.068C328.558 235.068 323.334 234.912 323.15 238.478L328.061 238.632C328.061 238.632 331.049 242.481 326.765 249.993C325.057 257.353 330.462 254.241 330.832 256.686C331.378 260.294 338.517 254.107 339.648 246.756C341.115 237.242 339.17 236.1 339.17 236.1L337.012 228.875L328.389 227.758Z" fill="#F37A50"/>
<path d="M321.335 144.506C329.689 146.345 345.057 195.84 345.057 195.84L340.448 233.691L326.572 232.142L327.406 202.63L317.01 174.655L321.335 144.506Z" fill="#201D40"/>
<path d="M303.126 383.558C310.668 393.601 329.186 387.439 328.573 401.022C300.41 400.847 288.707 401.022 288.707 401.022C288.743 397.902 289.301 390.498 289.949 387.595L303.126 383.558Z" fill="black"/>
<path d="M260.991 383.824C268.531 393.865 287.051 387.703 286.438 401.286C258.275 401.111 246.572 401.286 246.572 401.286C246.609 398.168 247.166 390.762 247.815 387.859L260.991 383.824Z" fill="black"/>
<path d="M319.325 229.831C319.325 229.831 323.845 294.526 321.988 308.835C320.13 323.145 310.447 341.576 311.192 388.907C302.012 391.126 288.71 388.907 288.71 388.907C288.71 388.907 286.737 335.389 296.442 311.487C292.497 288.256 279.833 235.085 279.833 235.085L319.325 229.831Z" fill="#201D40"/>
<path d="M291.408 232.096C291.408 232.096 289.568 304.268 285.048 317.974C280.529 331.68 273.164 340.708 264.981 387.334C255.545 387.79 241.961 387.973 241.961 387.973C241.961 387.973 248.628 329.201 263.322 315.751C263.82 292.205 258.901 232.463 258.901 232.463L291.408 232.096Z" fill="#2C2858"/>
<path d="M304.021 136.623L291.455 133.997L278.776 136.024L291.003 151.819L304.021 136.623Z" fill="#95A6DB"/>
<path d="M300.57 145.008C297.707 146.858 294.351 147.8 290.942 147.71C287.533 147.62 284.231 146.503 281.47 144.505L281.743 125.134L299.804 125.757L300.57 145.008Z" fill="#F37A50"/>
<path d="M274.739 142.451L278.674 141.385L278.774 136.021L288.261 145.575L291.156 146.379L294.087 145.714L304.018 136.619L303.863 141.982L307.108 143.024L318.864 146.321L312.731 212.853L314.887 235.969C298.393 239.441 280.471 238.739 263.273 234.353L266.443 211.762L261.42 145.494L274.739 142.451Z" fill="#95A6DB"/>
<path d="M294.155 153.273L297.947 204.684L293.353 210.163L288.223 205.596L290.2 153.407L294.155 153.273Z" fill="#2C2858"/>
<path d="M297.26 146.978L292.54 145.967L287.306 147.076L290.196 153.508L294.169 153.444L297.26 146.978Z" fill="#2C2858"/>
<path d="M305.068 139.009L304.641 197.09L303.405 237.977C303.405 237.977 315.117 242.15 323.855 235.553L321.507 144.507L305.068 139.009Z" fill="#2C2858"/>
<path d="M304.778 138.396L304.518 201.121L313.753 152.449L304.778 138.396Z" fill="#494C7F"/>
<path d="M278.429 136.595L281.473 239.564C281.473 239.564 260.272 243.274 251.617 237.562L256.314 205.024L260.485 138.466L278.429 136.595Z" fill="#2C2858"/>
<path d="M278.634 136.396L280.286 199.39L269.307 149.802L278.634 136.396Z" fill="#494C7F"/>
<path d="M232.642 234.697L232.484 242.008C232.484 242.008 237.708 241.852 237.889 245.418L232.979 245.569C232.979 245.569 229.99 249.42 234.273 256.933C235.981 264.292 230.577 261.178 230.217 263.625C229.67 267.233 222.531 261.046 221.402 253.693C219.935 244.181 221.88 243.037 221.88 243.037L224.038 235.814L232.642 234.697Z" fill="#F37A50"/>
<path d="M299.441 131.081C309.779 128.837 315.839 116.365 312.976 103.226C310.114 90.0859 299.413 81.2537 289.075 83.4983C278.737 85.7429 272.677 98.2143 275.539 111.354C278.402 124.494 289.103 133.326 299.441 131.081Z" fill="#F37A50"/>
<path d="M306.724 108.223C307.1 108.335 307.5 108.333 307.875 108.218C308.25 108.103 308.582 107.879 308.83 107.576C309.078 107.272 309.229 106.902 309.266 106.512C309.303 106.122 309.223 105.73 309.037 105.385C308.851 105.041 308.566 104.759 308.22 104.576C307.873 104.392 307.479 104.316 307.089 104.356C306.699 104.396 306.329 104.551 306.027 104.8C305.725 105.05 305.504 105.384 305.392 105.759C305.241 106.262 305.297 106.804 305.547 107.266C305.796 107.728 306.22 108.072 306.724 108.223Z" fill="black"/>
<path d="M290.532 107.666C290.718 108.012 291.004 108.296 291.351 108.48C291.699 108.665 292.094 108.742 292.487 108.703C292.879 108.663 293.25 108.508 293.554 108.258C293.858 108.007 294.08 107.673 294.194 107.296C294.307 106.919 294.306 106.517 294.19 106.141C294.075 105.765 293.85 105.432 293.544 105.183C293.239 104.934 292.867 104.782 292.474 104.745C292.082 104.708 291.688 104.787 291.341 104.974C290.876 105.225 290.531 105.648 290.379 106.153C290.227 106.658 290.282 107.202 290.532 107.666Z" fill="black"/>
<path d="M303.296 106.715C304.717 109.944 306.538 113.897 306.538 113.897C306.538 113.897 304.997 116.86 300.866 116.306C302.717 115.839 304.615 114.916 304.244 112.488C303.872 110.061 303.296 106.715 303.296 106.715Z" fill="#DE623C"/>
<path d="M288.368 104.657C288.557 104.741 288.768 104.759 288.968 104.707C289.168 104.656 289.345 104.538 289.469 104.374C289.531 104.293 291.062 102.358 292.941 103.176C293.052 103.227 293.172 103.256 293.294 103.26C293.416 103.264 293.537 103.244 293.652 103.201C293.766 103.157 293.87 103.092 293.959 103.008C294.047 102.923 294.118 102.823 294.167 102.711C294.216 102.599 294.242 102.479 294.243 102.357C294.245 102.235 294.222 102.114 294.176 102.001C294.131 101.888 294.063 101.785 293.977 101.698C293.891 101.612 293.788 101.543 293.675 101.497C291.113 100.38 288.846 102.164 288.007 103.264C287.923 103.374 287.864 103.502 287.837 103.638C287.809 103.773 287.813 103.914 287.847 104.048C287.882 104.182 287.947 104.307 288.037 104.413C288.127 104.518 288.241 104.602 288.368 104.657Z" fill="#2C2858"/>
<path d="M310.79 104.657C310.601 104.741 310.389 104.759 310.189 104.707C309.989 104.656 309.813 104.538 309.688 104.374C309.626 104.293 308.098 102.358 306.217 103.176C306.106 103.227 305.986 103.256 305.864 103.26C305.742 103.264 305.62 103.244 305.506 103.201C305.392 103.157 305.287 103.092 305.199 103.008C305.11 102.923 305.04 102.823 304.991 102.711C304.942 102.599 304.916 102.479 304.914 102.357C304.912 102.235 304.935 102.114 304.981 102.001C305.027 101.888 305.095 101.785 305.181 101.698C305.267 101.612 305.369 101.543 305.482 101.497C308.044 100.38 310.311 102.164 311.15 103.264C311.235 103.374 311.293 103.502 311.321 103.638C311.348 103.773 311.345 103.914 311.31 104.048C311.275 104.182 311.21 104.307 311.12 104.413C311.03 104.518 310.917 104.602 310.79 104.657Z" fill="#2C2858"/>
<path d="M277.576 111.87C278.124 107.02 282.24 108.526 283.417 102.179C284.593 95.8325 285.752 91.0499 291.713 92.7911C297.673 94.5324 299.291 93.2664 301.908 92.1049C309.78 88.6181 312.694 102.005 312.694 102.005C312.694 102.005 318.387 91.2502 312.502 85.3807C305.975 78.8633 304.05 83.3368 297.985 78.6011C291.92 73.8654 282.21 75.5044 279.853 79.2682C277.366 83.2366 276.668 86.1991 270.646 88.4966C264.624 90.7941 261.225 95.37 265.843 102.041C270.46 108.712 261.221 112.132 269.495 118.739C272.698 121.297 278.617 122.488 279.71 121.355C281.16 119.826 277.221 114.997 277.576 111.87Z" fill="#2C2858"/>
<path d="M313.676 110.407C313.676 110.407 312.674 116.935 311.212 118.932C310.715 115.874 307.822 118.433 305.615 118.293C300.277 117.945 291.249 114.348 288.764 121.944C282.014 122.687 278.476 108.197 278.476 108.197C275.082 123.286 284.774 133.842 301.272 134.505C312.143 134.932 316.197 121.159 313.676 110.407Z" fill="#2C2858"/>
<path d="M307.491 122.557C307.562 122.468 307.606 122.359 307.615 122.245C307.625 122.131 307.601 122.016 307.546 121.915C307.492 121.815 307.408 121.732 307.307 121.679C307.206 121.625 307.091 121.602 306.976 121.613C303.301 122.012 299.589 121.923 295.937 121.347C295.823 121.33 295.707 121.347 295.603 121.395C295.499 121.444 295.411 121.522 295.351 121.62C295.291 121.718 295.262 121.832 295.266 121.946C295.27 122.061 295.309 122.172 295.376 122.265C296.292 123.563 298.2 125.543 301.353 125.62C304.506 125.697 306.513 123.811 307.491 122.557Z" fill="white"/>
<path d="M279.642 108.586C281.873 110.979 282.091 114.398 280.129 116.222C278.167 118.046 274.769 117.582 272.536 115.188C270.302 112.795 270.087 109.376 272.049 107.554C274.011 105.732 277.409 106.182 279.642 108.586Z" fill="#F37A50"/>
<path d="M277.102 115.101C277.209 115.068 277.306 115.011 277.386 114.933C278.575 113.791 278.904 112.343 278.263 111.06C277.623 109.777 276.129 108.959 274.739 109.181C274.557 109.217 274.397 109.323 274.292 109.475C274.186 109.626 274.144 109.813 274.173 109.996C274.202 110.178 274.301 110.342 274.449 110.454C274.596 110.565 274.781 110.615 274.965 110.594C275.725 110.47 276.611 110.958 276.983 111.7C277.354 112.442 277.13 113.192 276.391 113.904C276.276 114.016 276.202 114.163 276.18 114.323C276.159 114.482 276.192 114.644 276.274 114.782C276.356 114.92 276.483 115.027 276.633 115.085C276.783 115.143 276.948 115.149 277.102 115.101Z" fill="#DE623C"/>
<path d="M292.54 145.967L283.422 154.062L276.368 139.65L278.774 136.025L292.54 145.967Z" fill="white"/>
<path d="M292.541 145.965L299.55 153.395L306.148 140.545L304.02 136.622L292.541 145.965Z" fill="white"/>
<path d="M236.14 373.584C235.408 366.297 239.173 310.854 239.173 310.854C249.82 262.112 245.638 227.221 245.638 227.221L227.338 228.499L220.124 256.044L223.54 302.043C223.54 302.043 222.259 305.583 221.578 308.416C217.904 323.761 221.565 342.12 223.828 354.351C224.876 360.018 226.507 371.93 226.55 374.639L221.952 380.572C221.952 380.572 238.591 398.957 241.152 399.072C246.127 399.298 244.662 394.383 244.662 394.383C237.818 387.369 236.349 375.668 236.14 373.584Z" fill="#F37A50"/>
<path d="M221.675 387.091L222.591 398.905L224.726 399.001L225.793 388.031C231.453 389.474 235.509 399.728 235.509 399.728C239.407 401.124 249.319 402.072 252.846 400.267C253.7 396.816 244.652 394.397 244.652 394.397C243.837 395.363 239.008 396.102 237.294 395.069C230.981 389.702 227.9 381.899 226.558 374.645C226.558 374.645 216.581 375.337 221.675 387.091Z" fill="#E62552"/>
<path d="M229.955 230.767L204.173 227.221C194.31 249.497 191.095 288.284 188.418 302.101C177.671 320.089 174.26 374.643 174.26 374.643L169.661 380.577C169.661 380.577 186.302 398.961 188.862 399.076C193.836 399.302 192.369 394.387 192.369 394.387C185.538 387.375 184.197 378.062 183.755 376.012C183.089 372.932 204.623 312.412 204.623 312.412L206.923 306.67C233.224 263.301 237.538 230.516 237.538 230.516L229.955 230.767Z" fill="#F37A50"/>
<path d="M169.377 387.091L170.291 398.905L172.426 399.001L173.493 388.031C179.153 389.474 183.209 399.728 183.209 399.728C187.107 401.124 197.019 402.072 200.546 400.267C201.4 396.816 192.352 394.397 192.352 394.397C191.537 395.363 186.708 396.102 184.994 395.069C178.681 389.702 175.6 381.899 174.258 374.645C174.26 374.645 164.284 375.337 169.377 387.091Z" fill="#E62552"/>
<path d="M239.408 167.575C247.802 164.655 265.639 155.663 257.189 143.538C248.739 131.413 245.149 136.505 248.398 121.914C251.647 107.324 241.366 95.7251 231.417 98.5256C221.469 101.326 218.841 109.314 206.702 107.153C194.564 104.992 184.327 116.237 188.798 126.134C193.268 136.032 195.17 140.793 190.83 146.198C186.49 151.603 167.133 157.264 175.032 170.409C182.931 183.555 186.631 182.796 183.761 189.461C180.892 196.125 187.256 203.815 198.449 202.888C209.642 201.961 219.812 197.86 224.05 185.441C228.288 173.022 239.408 167.575 239.408 167.575Z" fill="black"/>
<path d="M237.179 163.757C240.977 164.149 245.47 166.076 247.106 170.577C248.741 175.079 247.699 186.877 247.699 186.877L237.179 163.757Z" fill="#C4204A"/>
<path d="M216.152 151.584L216.278 168.093C216.278 168.093 224.303 172.967 230.639 169.075C229.664 164.21 228.246 153.112 228.246 153.112L216.152 151.584Z" fill="#F37A50"/>
<path d="M222.615 154.631C231.755 154.631 239.164 144.687 239.164 132.42C239.164 120.154 231.755 110.21 222.615 110.21C213.475 110.21 206.065 120.154 206.065 132.42C206.065 144.687 213.475 154.631 222.615 154.631Z" fill="#F37A50"/>
<path d="M204.967 132.418C214.104 131.253 222.598 126.17 227.395 119.603C230.495 127.276 239.169 132.418 239.169 132.418C239.169 132.418 245.667 117.734 233.847 109.814C222.571 102.257 195.665 107.421 204.967 132.418Z" fill="black"/>
<path d="M215.655 137.162C215.307 137.162 214.967 137.059 214.677 136.866C214.388 136.673 214.163 136.399 214.029 136.078C213.896 135.757 213.861 135.404 213.929 135.063C213.997 134.723 214.165 134.41 214.411 134.164C214.657 133.919 214.97 133.751 215.311 133.684C215.653 133.616 216.006 133.651 216.328 133.784C216.649 133.916 216.924 134.142 217.117 134.43C217.311 134.719 217.414 135.059 217.414 135.406C217.414 135.637 217.368 135.865 217.28 136.078C217.191 136.291 217.062 136.485 216.898 136.648C216.735 136.811 216.541 136.94 216.328 137.029C216.114 137.117 215.886 137.162 215.655 137.162Z" fill="black"/>
<path d="M229.674 137.162C229.326 137.162 228.986 137.059 228.697 136.866C228.408 136.673 228.182 136.399 228.049 136.078C227.916 135.757 227.881 135.404 227.949 135.063C228.017 134.723 228.184 134.41 228.43 134.164C228.676 133.919 228.99 133.751 229.331 133.684C229.672 133.616 230.026 133.651 230.347 133.784C230.669 133.916 230.943 134.142 231.137 134.43C231.33 134.719 231.433 135.059 231.433 135.406C231.433 135.637 231.388 135.865 231.299 136.078C231.211 136.291 231.081 136.485 230.918 136.648C230.755 136.811 230.561 136.94 230.347 137.029C230.134 137.117 229.905 137.162 229.674 137.162Z" fill="black"/>
<path d="M232.773 133.825C232.626 133.824 232.482 133.786 232.355 133.713C232.227 133.641 232.121 133.537 232.045 133.411C231.618 132.68 231.084 132.241 230.482 132.107C229.438 131.877 228.405 132.572 228.397 132.58C228.213 132.673 228.002 132.697 227.802 132.647C227.602 132.596 227.427 132.476 227.31 132.307C227.192 132.139 227.139 131.933 227.161 131.729C227.183 131.524 227.279 131.335 227.43 131.195C227.496 131.15 229.058 130.076 230.828 130.457C231.913 130.69 232.811 131.395 233.499 132.55C233.611 132.743 233.642 132.972 233.587 133.188C233.531 133.404 233.393 133.59 233.202 133.705C233.073 133.784 232.924 133.825 232.773 133.825Z" fill="black"/>
<path d="M212.315 133.906C212.157 133.903 212.004 133.856 211.871 133.771C211.738 133.685 211.632 133.565 211.564 133.423C211.495 133.281 211.468 133.123 211.484 132.967C211.5 132.81 211.559 132.661 211.655 132.536C212.765 131.151 214.004 130.405 215.308 130.296C216.365 130.231 217.406 130.573 218.218 131.253C218.35 131.411 218.42 131.611 218.416 131.816C218.411 132.022 218.333 132.219 218.195 132.371C218.056 132.523 217.868 132.621 217.663 132.645C217.459 132.67 217.252 132.619 217.082 132.504C216.611 132.129 216.018 131.942 215.417 131.98C214.595 132.052 213.773 132.593 212.975 133.589C212.896 133.688 212.795 133.768 212.681 133.823C212.567 133.878 212.442 133.906 212.315 133.906Z" fill="black"/>
<path d="M224.372 137.709C226.645 139.346 227.361 140.018 228.234 140.563C227.627 142.592 224.442 143.598 223.537 143.364C225.757 142.273 226.069 140.793 226.069 140.793L224.372 137.709Z" fill="#DE623C"/>
<path d="M208.539 134.135C210.435 136.533 210.529 139.615 208.753 141.019C206.977 142.424 203.992 141.616 202.094 139.216C200.196 136.816 200.105 133.739 201.881 132.334C203.657 130.93 206.652 131.737 208.539 134.135Z" fill="#F37A50"/>
<path d="M206.865 139.318C206.772 139.317 206.681 139.294 206.599 139.249C206.517 139.205 206.448 139.142 206.397 139.065C206.345 138.987 206.314 138.899 206.305 138.806C206.296 138.714 206.31 138.621 206.346 138.535C206.75 137.585 206.758 136.83 206.374 136.263C205.78 135.411 204.38 135.136 203.364 135.17C203.219 135.167 203.082 135.109 202.979 135.008C202.876 134.906 202.816 134.77 202.812 134.626C202.807 134.482 202.858 134.341 202.954 134.234C203.05 134.126 203.184 134.059 203.327 134.047C204.692 134.002 206.453 134.392 207.303 135.626C207.729 136.242 208.084 137.32 207.384 138.974C207.34 139.076 207.268 139.163 207.176 139.224C207.084 139.285 206.976 139.317 206.865 139.318Z" fill="#DE623C"/>
<path d="M218.227 146.366C218.175 146.28 218.149 146.181 218.152 146.081C218.155 145.981 218.187 145.884 218.245 145.802C218.302 145.72 218.383 145.657 218.476 145.62C218.569 145.583 218.671 145.574 218.769 145.594C221.92 146.303 225.15 146.59 228.376 146.447C228.476 146.444 228.575 146.471 228.66 146.523C228.745 146.576 228.812 146.652 228.854 146.743C228.896 146.834 228.911 146.935 228.896 147.034C228.881 147.132 228.838 147.225 228.771 147.299C227.849 148.335 225.996 149.857 223.248 149.622C220.501 149.388 218.953 147.548 218.227 146.366Z" fill="white"/>
<path d="M201.558 162.903C201.558 162.903 180.118 172.4 168.14 197.261C175.136 207.095 182.684 201.247 182.684 201.247L202.656 185.671C202.656 185.671 207.734 176.492 207.079 171.654C206.108 164.463 201.558 162.903 201.558 162.903Z" fill="#C4204A"/>
<path d="M205.245 300.118C198.348 298.872 191.73 298.88 187.849 298.965C190.306 290.762 188.916 239.597 204.475 222.184L244.343 222.713C258.219 246.47 250.865 282.638 259.434 297.058C256.087 298.673 248.815 301.747 236.525 302.991C222.935 304.362 216.897 302.224 205.245 300.118Z" fill="#070635"/>
<path d="M243.999 212.32C243.999 204.189 251.057 192.009 247.673 183.802C245.21 177.195 240.893 165.294 235.853 163.446C233.473 162.572 232.305 161.905 229.342 161.086C229.342 161.086 229.186 167.378 225.712 167.655C219.005 168.192 216.229 159.582 216.229 159.582C212.613 159.236 199.253 163.022 199.262 164.381C199.3 175.038 203.993 192.254 206.828 203.769C207.353 209.633 206.936 214.181 206.349 217.497C205.282 220.956 203.416 222.736 203.408 223.484C203.408 223.484 228.812 232.115 244.631 223.422C244.621 223.422 243.999 217.81 243.999 212.32Z" fill="#F5A3B7"/>
<path d="M213.272 159.799C213.272 159.799 221.113 188.998 221.113 201.344C221.113 215.372 213.908 239.025 213.908 239.025L196.274 238.337C196.274 238.337 198.433 228.482 203.813 219.722C209.363 210.677 203.268 191.376 201.923 186.25C200.578 181.125 198.392 164.567 198.392 164.567C198.392 164.567 205.725 159.754 213.272 159.799Z" fill="#E62552"/>
<path d="M231.943 161.914C233.696 165.631 240.483 180.861 240.056 190.122C239.629 199.382 238.775 231.178 241.311 239.831C247.645 239.644 250.538 237.736 250.538 237.736C251.439 235.296 241.947 221.291 244.505 210.409C247.062 199.527 249.293 191.773 248.589 187.315C247.801 182.317 243.924 169.646 237.18 163.755C235.475 163.033 233.726 162.418 231.943 161.914Z" fill="#E62552"/>
<path d="M199.218 219.967L200.353 220.438C200.353 220.438 202.657 217.337 205.01 217.454L203.571 220.477C203.571 220.477 206.276 224.92 213.391 224.449C219.479 225.832 215.22 228.712 216.907 229.871C219.394 231.576 212.424 235.758 206.542 233.953C198.938 231.608 193.998 224.451 193.998 224.451L199.218 219.967Z" fill="#F37A50"/>
<path d="M199.219 219.965L183.078 199.618C183.078 199.618 179.677 193.124 168.134 197.257C167.574 203.448 174.207 211.884 194.783 225.471L199.219 219.965Z" fill="#C4204A"/>
<path d="M456.49 103.897C442.14 99.848 413.477 111.44 421.818 163.543C430.159 215.647 467.687 208.417 467.687 208.417C467.687 208.417 484.909 203.012 486.454 169.912C488 136.811 480.62 110.696 456.49 103.897Z" fill="#201D40"/>
<path d="M438.938 176.12C435.883 184.905 424.421 202.087 420.326 205.239C417.6 201.363 407.537 203.296 407.537 203.296C407.537 203.296 417.6 178.952 426.686 167.156C430.924 159.21 443.955 161.787 438.938 176.12Z" fill="#7890DB"/>
<path d="M407.539 203.295C409.492 213.998 422.455 227.916 422.455 227.916C422.455 227.916 423.913 227.078 424.229 220.77C422.622 216.449 420.329 205.239 420.329 205.239C420.329 205.239 415.224 199.764 407.539 203.295Z" fill="#F37A50"/>
<path d="M444.025 151.226L454.72 149.625L453.866 159.538C453.866 159.538 448.45 169.282 443.31 167.602C438.169 165.923 440.677 161.62 440.677 161.62L444.025 151.226Z" fill="#F37A50"/>
<path d="M463.279 135.146C461.541 146.855 452.665 155.244 443.451 153.88C434.237 152.516 428.18 141.919 429.918 130.21C431.656 118.5 440.532 110.112 449.746 111.474C458.96 112.835 465.017 123.434 463.279 135.146Z" fill="#F37A50"/>
<path d="M453.268 131.983C453.135 131.945 453.02 131.862 452.942 131.749C451.746 130.044 449.344 130.084 449.312 130.086C449.156 130.084 449.006 130.021 448.894 129.912C448.782 129.802 448.717 129.654 448.712 129.497C448.707 129.341 448.762 129.188 448.866 129.072C448.97 128.955 449.116 128.882 449.272 128.869C449.398 128.869 452.355 128.791 453.934 131.052C454.006 131.156 454.044 131.279 454.043 131.405C454.041 131.531 454.001 131.654 453.927 131.756C453.853 131.858 453.749 131.935 453.63 131.975C453.51 132.016 453.381 132.019 453.26 131.983H453.268Z" fill="#201D40"/>
<path d="M432.73 131.645C432.667 131.621 432.609 131.586 432.557 131.543C432.436 131.438 432.36 131.29 432.347 131.131C432.334 130.971 432.384 130.813 432.487 130.69C434.178 128.7 436.528 129.258 436.629 129.281C436.781 129.325 436.91 129.425 436.99 129.562C437.069 129.698 437.093 129.86 437.055 130.014C437.017 130.167 436.921 130.3 436.787 130.384C436.652 130.468 436.491 130.497 436.336 130.464C435.803 130.359 435.252 130.397 434.739 130.576C434.226 130.754 433.77 131.066 433.418 131.479C433.334 131.574 433.224 131.641 433.101 131.671C432.977 131.701 432.848 131.692 432.73 131.645Z" fill="#201D40"/>
<path d="M441.23 136.603C440.464 137.543 439.802 138.5 439.042 139.078C438.918 139.173 438.836 139.312 438.812 139.467C438.788 139.621 438.825 139.778 438.914 139.907C439.665 141 441.649 141.78 442.855 142.172C442.892 142.183 442.931 142.181 442.967 142.166C443.002 142.151 443.032 142.124 443.049 142.09C443.067 142.056 443.072 142.016 443.063 141.979C443.054 141.941 443.033 141.908 443.002 141.884C441.736 140.959 441.164 140.248 440.916 139.849C440.856 139.752 440.819 139.642 440.809 139.528C440.8 139.413 440.817 139.299 440.861 139.193C441.059 138.696 441.452 137.684 441.715 136.848C441.738 136.785 441.738 136.716 441.714 136.653C441.689 136.591 441.642 136.539 441.582 136.509C441.522 136.479 441.453 136.471 441.388 136.489C441.323 136.506 441.267 136.547 441.23 136.603Z" fill="#DE623C"/>
<path d="M448.954 145.458C449.006 145.379 449.034 145.286 449.034 145.191C449.034 145.096 449.006 145.003 448.954 144.924C448.902 144.844 448.827 144.782 448.74 144.744C448.653 144.707 448.556 144.695 448.463 144.712C446.958 144.99 445.438 145.183 443.911 145.29C442.383 145.366 440.852 145.355 439.326 145.258C439.231 145.252 439.136 145.275 439.054 145.322C438.971 145.37 438.905 145.441 438.862 145.526C438.82 145.611 438.803 145.707 438.815 145.801C438.826 145.895 438.865 145.984 438.926 146.057C439.78 147.065 441.488 148.57 444.099 148.414C446.71 148.258 448.224 146.549 448.954 145.458Z" fill="white"/>
<path d="M467.026 134.072C456.139 133.58 441.801 123.541 440.07 118.028C441.564 111.092 447.034 107.173 453.577 109.75C460.12 112.326 470.839 125.174 467.026 134.072Z" fill="#201D40"/>
<path d="M442.553 120.812C442.553 120.812 436.069 127.391 429.502 128.896C431.802 121.223 433.443 115.403 437.382 113.519C441.321 111.635 445.672 111.307 445.672 111.307L442.553 120.812Z" fill="#201D40"/>
<path d="M460.733 133.325C458.692 135.222 458.295 138.11 459.849 139.779C461.403 141.448 464.317 141.271 466.36 139.367C468.403 137.464 468.798 134.583 467.244 132.914C465.69 131.245 462.773 131.431 460.733 133.325Z" fill="#F37A50"/>
<path d="M462.494 139.023C462.406 138.987 462.327 138.933 462.263 138.863C461.322 137.818 461.132 136.569 461.755 135.521C462.065 134.997 462.531 134.583 463.088 134.335C463.645 134.088 464.266 134.02 464.863 134.14C464.945 134.155 465.022 134.186 465.092 134.231C465.161 134.277 465.22 134.336 465.265 134.406C465.31 134.475 465.341 134.552 465.356 134.634C465.37 134.715 465.368 134.799 465.349 134.879C465.33 134.96 465.294 135.036 465.245 135.102C465.196 135.169 465.134 135.224 465.062 135.266C464.99 135.308 464.911 135.335 464.829 135.345C464.747 135.355 464.663 135.348 464.584 135.325C464.239 135.267 463.885 135.313 463.567 135.459C463.25 135.605 462.984 135.842 462.803 136.141C462.457 136.725 462.59 137.403 463.17 138.059C463.262 138.161 463.316 138.291 463.324 138.428C463.333 138.565 463.295 138.7 463.216 138.813C463.138 138.925 463.025 139.008 462.893 139.048C462.762 139.088 462.621 139.083 462.494 139.033V139.023Z" fill="#DE623C"/>
<path d="M452.096 133.773C452.096 134.143 451.986 134.504 451.781 134.811C451.575 135.119 451.282 135.358 450.94 135.5C450.598 135.641 450.222 135.678 449.859 135.606C449.495 135.534 449.162 135.356 448.9 135.095C448.638 134.833 448.46 134.5 448.388 134.138C448.315 133.775 448.352 133.399 448.494 133.058C448.636 132.716 448.876 132.424 449.184 132.219C449.492 132.013 449.853 131.904 450.224 131.904C450.72 131.904 451.197 132.101 451.548 132.451C451.899 132.802 452.096 133.277 452.096 133.773Z" fill="black"/>
<path d="M438.453 133.773C438.453 134.143 438.343 134.504 438.137 134.811C437.931 135.119 437.639 135.358 437.297 135.5C436.955 135.641 436.578 135.678 436.215 135.606C435.852 135.534 435.518 135.356 435.256 135.095C434.995 134.833 434.816 134.5 434.744 134.138C434.672 133.775 434.709 133.399 434.851 133.058C434.992 132.716 435.232 132.424 435.54 132.219C435.848 132.013 436.21 131.904 436.58 131.904C437.077 131.904 437.553 132.101 437.904 132.451C438.255 132.802 438.453 133.277 438.453 133.773Z" fill="black"/>
<path d="M434.011 375.649C434.729 368.518 431.042 314.245 431.042 314.245C420.62 266.532 424.714 232.378 424.714 232.378L442.628 233.634L449.69 260.597L446.34 305.624C446.34 305.624 447.597 309.089 448.261 311.862C451.859 326.892 448.274 344.854 446.06 356.832C445.034 362.374 443.437 374.04 443.396 376.691L447.896 382.499C447.896 382.499 431.608 400.496 429.11 400.615C424.24 400.828 425.675 396.02 425.675 396.02C432.361 389.144 433.798 377.691 434.011 375.649Z" fill="#F37A50"/>
<path d="M448.174 388.872L447.28 400.434L445.196 400.528L444.144 389.79C438.604 391.203 434.633 401.242 434.633 401.242C430.816 402.608 421.115 403.546 417.661 401.768C416.829 398.392 425.682 396.014 425.682 396.014C426.482 396.96 431.207 397.685 432.885 396.67C439.076 391.419 442.079 383.78 443.397 376.679C443.405 376.687 453.161 377.365 448.174 388.872Z" fill="#C4204A"/>
<path d="M440.073 235.848L465.311 232.378C474.965 254.184 478.12 292.15 480.733 305.675C491.252 323.286 494.593 376.687 494.593 376.687L499.095 382.495C499.095 382.495 482.806 400.491 480.308 400.611C475.437 400.824 476.873 396.016 476.873 396.016C483.568 389.151 484.873 380.031 485.306 378.026C485.957 375.012 464.878 315.769 464.878 315.769L462.621 310.142C436.875 267.689 432.652 235.597 432.652 235.597L440.073 235.848Z" fill="#F37A50"/>
<path d="M499.373 388.872L498.476 400.434L496.395 400.528L495.342 389.79C489.792 391.203 485.831 401.242 485.831 401.242C482.014 402.608 472.311 403.546 468.859 401.768C468.027 398.392 476.88 396.014 476.88 396.014C477.678 396.96 482.405 397.685 484.083 396.67C490.263 391.419 493.276 383.78 494.593 376.679C494.593 376.687 504.358 377.365 499.373 388.872Z" fill="#C4204A"/>
<path d="M486.992 303.198C484.471 294.78 485.568 234.522 463.317 218.137L425.028 222.163C416.181 236.461 419.426 273.665 422.407 304.285C440.416 310.698 454.72 313.273 486.992 303.198Z" fill="#070635"/>
<path d="M424.562 212.733C424.562 204.361 417.303 191.821 420.779 183.37C423.317 176.573 427.76 164.316 432.947 162.411C435.396 161.514 437.708 161.733 440.759 160.891C440.759 160.891 439.811 166.46 443.397 166.748C450.301 167.3 453.931 158.464 453.931 158.464C457.654 158.108 470.638 161.976 470.629 163.377C470.589 174.342 465.76 192.074 462.841 203.928C462.299 209.964 462.728 214.649 463.334 218.063C464.438 221.624 465.79 223.664 465.798 224.433C465.798 224.433 440.203 233.114 423.919 224.163C423.923 224.163 424.562 218.387 424.562 212.733Z" fill="#95A6DB"/>
<path d="M470.093 220.695L467.911 221.565C467.911 221.565 465.638 217.954 463.332 218.07L464.48 221.518C464.48 221.518 463.176 225.548 456.191 225.088C450.213 226.441 454.398 229.269 452.745 230.401C450.309 232.07 457.145 236.171 462.905 234.402C470.356 232.115 475.197 225.088 475.197 225.088L470.093 220.695Z" fill="#F37A50"/>
<path d="M470.094 162.722C470.094 162.722 488.33 173.379 497.16 198.954C489.229 207.73 482.547 201.181 482.547 201.181L464.879 183.751C464.879 183.751 459.685 177.383 462.17 169.604C464.341 162.822 470.094 162.722 470.094 162.722Z" fill="#F37A50"/>
<path d="M470.091 220.691L482.841 202.048C482.841 202.048 485.851 194.9 497.157 198.95C497.703 205.017 493.303 213.655 473.138 226.976C472.289 224.804 471.27 222.703 470.091 220.691Z" fill="#F37A50"/>
<path d="M443.406 166.748C442.792 169.614 444.459 173.054 449.273 171.436C455.037 169.506 457.729 158.704 457.729 158.704L454.11 156.752C454.11 156.752 451.365 164.211 443.406 166.748Z" fill="white"/>
<path d="M443.404 166.75C442.693 168.227 438.639 172.014 436.718 169.759C434.797 167.504 437.038 161.579 437.038 161.579L441.41 159.363C441.41 159.363 439.692 164.697 443.404 166.75Z" fill="white"/>
<path d="M470.094 162.722C470.094 162.722 488.33 173.379 497.16 198.954C489.229 207.73 481.859 200.501 481.859 200.501L464.879 183.751C464.879 183.751 459.685 177.383 462.17 169.604C464.341 162.822 470.094 162.722 470.094 162.722Z" fill="#7890DB"/>
<path d="M420.373 229.374C420.505 229.288 420.649 229.222 420.8 229.18C420.783 229.16 420.766 229.139 420.751 229.116C419.848 227.806 419.88 226.218 420.822 225.57C420.976 225.469 421.148 225.397 421.328 225.357C421.063 224.379 421.268 223.439 421.943 222.974C422.211 222.794 422.528 222.7 422.852 222.703C422.523 221.744 422.754 220.726 423.507 220.21C424.451 219.57 425.841 219.946 426.611 221.062C427.382 222.179 427.252 223.62 426.302 224.259C426.068 224.42 425.798 224.522 425.516 224.558C426.172 225.781 426.067 227.134 425.215 227.72C425.061 227.821 424.889 227.893 424.709 227.934C424.974 228.912 424.769 229.852 424.094 230.314C423.846 230.482 423.555 230.576 423.255 230.585C423.586 231.425 423.401 232.337 422.739 232.791C421.943 233.338 420.768 233.004 420.117 232.068C419.466 231.133 419.577 229.92 420.373 229.374Z" fill="#F37A50"/>
<path d="M340.935 388.15L333.623 391.541L329.913 383.817L319.281 314.468C321.115 291.273 338.909 241.925 338.909 241.925L359.455 271.748L336.134 318.662C345.299 328.033 339.75 356.839 340.935 388.15Z" fill="#F37A50"/>
<path d="M350.966 243.566C351.15 242.132 374.074 240.084 374.074 240.084C378.416 258.174 378.758 287.42 375.333 307.392C380.348 324.674 377.94 365.303 375.15 386.023L363.067 385.993C362.272 374.8 362.866 338.15 352.975 307.392C351.009 295.838 350.164 251.267 350.966 243.566Z" fill="#F37A50"/>
<path d="M334.602 388.494C333.107 384.285 329.905 383.818 329.905 383.818C323.676 392.701 308.377 387.249 308.885 399.267C332.155 399.112 341.815 399.267 341.815 399.267C341.785 396.497 341.324 389.956 340.788 387.392L339.576 387.622L334.602 388.494Z" fill="#E62552"/>
<path d="M340.406 402.475H310.275C309.902 402.475 309.544 402.327 309.28 402.063C309.016 401.8 308.868 401.443 308.868 401.07V398.939H341.811V401.07C341.811 401.442 341.663 401.799 341.399 402.062C341.136 402.325 340.778 402.472 340.406 402.472V402.475Z" fill="white"/>
<path d="M360.177 399.382C360.177 399.382 362.045 391.922 362.209 390.976C362.397 389.887 362.946 387.314 363.063 385.995C363.091 385.671 366.297 383.574 368.746 383.578C372.064 383.578 375.086 385.637 375.151 386.025C375.543 388.512 375.554 391.434 376.188 393.855C376.66 395.656 377.941 399.853 377.941 399.853L360.177 399.382Z" fill="#E62552"/>
<path d="M360.181 398.801C360.608 400.278 365.988 398.573 369.905 398.573C373.195 398.573 377.452 399.937 377.935 399.409C378.759 400.96 378.08 404.181 378.08 404.181C378.08 404.181 374.664 404.37 370.542 404.181C366.419 403.991 361.678 404.272 359.887 403.703C358.757 401.685 360.181 398.801 360.181 398.801Z" fill="white"/>
<path d="M322.38 122.254C321.627 112.024 324.59 102.988 332.76 98.3841C341.041 93.7187 351.414 98.2946 351.414 98.2946C351.414 98.2946 360.195 95.1765 368.151 103.928C376.108 112.679 370.09 120.379 373.345 126.76C375.267 130.541 385.087 131.319 382.544 143.631C381.814 147.182 377.536 149.571 373.913 149.812C367.549 150.238 361.621 147.774 359.042 150.238C350.539 158.337 331.697 155.406 329.06 148C328.243 145.705 311.292 150.149 312.983 134.509C313.841 126.574 323.053 131.391 322.38 122.254Z" fill="black"/>
<path d="M341.308 144.35L352.234 142.717L351.363 152.843C351.363 152.843 348.129 162.304 341.683 162.485C335.238 162.666 337.627 155.079 337.627 155.079L341.308 144.35Z" fill="#F37A50"/>
<path d="M321.425 207.185C321.425 198.634 314.003 185.823 317.561 177.189C320.153 170.246 324.483 158.588 329.785 156.644C332.288 155.725 334.802 155.103 337.919 154.242C337.919 154.242 337.008 159.915 340.671 160.21C347.716 160.774 351.463 151.714 351.463 151.714C355.267 151.352 372.553 157.03 373.368 159.813C373.325 171.015 363.516 186.09 360.536 198.2C359.361 211.281 362.162 218.263 362.18 219.753C362.18 219.753 337.415 228.016 320.764 218.873C320.772 218.864 321.425 212.961 321.425 207.185Z" fill="#3F964F"/>
<path d="M361.476 129.697C359.239 141.584 349.843 149.795 340.495 148.041C331.147 146.287 325.378 135.23 327.616 123.344C329.853 111.458 339.246 103.246 348.597 105C357.947 106.754 363.714 117.813 361.476 129.697Z" fill="#F37A50"/>
<path d="M351.477 124.914C351.34 124.885 351.217 124.81 351.129 124.701C349.793 123.039 347.348 123.254 347.323 123.256C347.16 123.269 346.999 123.218 346.873 123.114C346.748 123.009 346.669 122.86 346.652 122.698C346.636 122.536 346.684 122.374 346.787 122.246C346.889 122.119 347.037 122.037 347.199 122.018C347.325 122.005 350.335 121.726 352.109 123.923C352.211 124.052 352.259 124.216 352.241 124.38C352.223 124.544 352.141 124.694 352.013 124.797C351.938 124.856 351.852 124.898 351.759 124.918C351.666 124.939 351.569 124.937 351.477 124.914Z" fill="black"/>
<path d="M331.367 124.738C331.302 124.719 331.241 124.688 331.186 124.649C331.119 124.601 331.062 124.541 331.019 124.472C330.975 124.403 330.946 124.326 330.932 124.245C330.919 124.164 330.921 124.082 330.94 124.002C330.959 123.923 330.993 123.848 331.04 123.781C332.592 121.611 335.033 121.98 335.137 121.997C335.295 122.03 335.433 122.121 335.525 122.253C335.616 122.385 335.652 122.548 335.627 122.706C335.601 122.864 335.515 123.007 335.387 123.103C335.259 123.2 335.098 123.244 334.939 123.225C334.387 123.162 333.829 123.248 333.322 123.473C332.815 123.698 332.378 124.054 332.054 124.504C331.979 124.609 331.872 124.689 331.748 124.731C331.625 124.773 331.492 124.775 331.367 124.738Z" fill="black"/>
<path d="M338.974 129.718C338.242 130.571 337.617 131.443 336.878 131.929C336.818 131.975 336.768 132.033 336.731 132.099C336.693 132.164 336.67 132.237 336.66 132.312C336.651 132.387 336.657 132.463 336.678 132.536C336.698 132.609 336.733 132.677 336.78 132.736C337.572 133.909 339.581 134.91 340.802 135.437C340.981 135.513 341.092 135.294 340.938 135.168C339.64 134.102 339.043 133.331 338.778 132.909C338.715 132.812 338.675 132.702 338.661 132.588C338.648 132.473 338.661 132.357 338.699 132.248C338.88 131.779 339.237 130.818 339.459 130.021C339.536 129.746 339.156 129.51 338.974 129.718Z" fill="#DE623C"/>
<path d="M346.952 138.818C347.004 138.736 347.03 138.641 347.028 138.544C347.026 138.447 346.995 138.353 346.94 138.273C346.885 138.193 346.807 138.131 346.718 138.095C346.628 138.059 346.529 138.049 346.434 138.068C344.903 138.38 343.355 138.607 341.799 138.748C340.236 138.857 338.668 138.877 337.102 138.808C337.005 138.804 336.909 138.829 336.827 138.879C336.744 138.929 336.677 139.003 336.635 139.09C336.594 139.178 336.578 139.275 336.592 139.371C336.605 139.467 336.646 139.557 336.709 139.63C337.595 140.645 339.378 142.145 342.047 141.934C344.715 141.723 346.237 139.959 346.952 138.818Z" fill="white"/>
<path d="M348.569 128.774C349.633 128.774 350.495 127.913 350.495 126.852C350.495 125.79 349.633 124.929 348.569 124.929C347.506 124.929 346.644 125.79 346.644 126.852C346.644 127.913 347.506 128.774 348.569 128.774Z" fill="black"/>
<path d="M334.35 128.774C335.414 128.774 336.276 127.913 336.276 126.852C336.276 125.79 335.414 124.929 334.35 124.929C333.287 124.929 332.425 125.79 332.425 126.852C332.425 127.913 333.287 128.774 334.35 128.774Z" fill="black"/>
<path d="M337.68 104.493C341.884 100.499 349.456 98.7384 354.407 100.923C360.984 103.811 367.726 117.244 363.482 126.179C354.785 125.448 343.088 118.868 337.685 113.316C334.598 116.049 331.206 118.416 327.574 120.371C326.998 116.127 335.733 105.33 337.68 104.493Z" fill="black"/>
<path d="M358.88 124.904C356.719 126.759 356.2 129.691 357.72 131.456C359.24 133.221 362.225 133.148 364.383 131.292C366.541 129.436 367.062 126.505 365.542 124.74C364.022 122.976 361.038 123.05 358.88 124.904Z" fill="#F37A50"/>
<path d="M360.453 130.787C360.365 130.747 360.287 130.688 360.225 130.614C359.307 129.512 359.157 128.229 359.838 127.183C360.177 126.662 360.67 126.259 361.248 126.029C361.826 125.8 362.462 125.756 363.066 125.904C363.226 125.948 363.361 126.053 363.442 126.197C363.524 126.341 363.545 126.511 363.501 126.67C363.456 126.829 363.351 126.964 363.207 127.046C363.063 127.127 362.892 127.148 362.733 127.104C362.384 127.03 362.021 127.064 361.691 127.199C361.361 127.335 361.08 127.567 360.884 127.865C360.509 128.449 360.613 129.143 361.183 129.828C361.273 129.935 361.324 130.07 361.327 130.211C361.33 130.351 361.286 130.488 361.202 130.6C361.117 130.712 360.997 130.792 360.861 130.828C360.726 130.863 360.582 130.852 360.453 130.795V130.787Z" fill="#DE623C"/>
<path d="M387.048 300.743C374.503 285.27 383.696 230.387 360.964 213.659L321.897 216.832C308.861 233.701 317.898 269.799 307.188 304.193C325.588 310.736 354.088 311.035 387.048 300.743Z" fill="#3F964F"/>
<path d="M371.017 218.786L368.722 219.701C368.722 219.701 366.329 215.905 363.906 216.024L365.114 219.647C365.114 219.647 363.741 223.887 356.395 223.403C350.119 224.826 354.51 227.802 352.766 228.991C350.204 230.745 357.392 235.057 363.44 233.198C371.279 230.792 376.371 223.394 376.371 223.394L371.017 218.786Z" fill="#F37A50"/>
<path d="M371.015 218.789L384.424 199.181C384.424 199.181 387.59 191.662 399.483 195.92C400.057 202.314 395.427 211.393 374.219 225.398C373.326 223.115 372.254 220.905 371.015 218.789Z" fill="#F37A50"/>
<path d="M371.018 157.818C371.018 157.818 390.197 169.035 399.486 195.921C391.143 205.154 383.391 197.551 383.391 197.551L365.534 179.934C365.534 179.934 360.07 173.236 362.681 165.051C364.957 157.92 371.018 157.818 371.018 157.818Z" fill="#F37A50"/>
<path d="M336.329 156.469C336.329 156.828 336.222 157.179 336.023 157.478C335.823 157.777 335.539 158.009 335.206 158.147C334.874 158.284 334.508 158.32 334.155 158.25C333.803 158.18 333.479 158.007 333.224 157.753C332.97 157.499 332.797 157.176 332.726 156.823C332.656 156.471 332.692 156.106 332.83 155.774C332.968 155.442 333.201 155.159 333.5 154.959C333.799 154.76 334.151 154.653 334.51 154.653C334.993 154.653 335.455 154.845 335.796 155.185C336.138 155.526 336.329 155.988 336.329 156.469Z" fill="white"/>
<path d="M334.554 161.921C335.558 161.896 336.352 161.063 336.327 160.06C336.301 159.058 335.467 158.265 334.463 158.29C333.459 158.315 332.665 159.148 332.69 160.151C332.715 161.153 333.549 161.946 334.554 161.921Z" fill="white"/>
<path d="M336.916 163.409C336.916 163.768 336.809 164.119 336.61 164.418C336.41 164.717 336.126 164.949 335.793 165.087C335.461 165.224 335.095 165.26 334.742 165.19C334.39 165.12 334.065 164.947 333.811 164.693C333.557 164.439 333.383 164.116 333.313 163.763C333.243 163.411 333.279 163.046 333.417 162.714C333.554 162.382 333.788 162.099 334.087 161.899C334.386 161.7 334.737 161.593 335.097 161.593C335.58 161.593 336.042 161.785 336.383 162.125C336.724 162.466 336.916 162.928 336.916 163.409Z" fill="white"/>
<path d="M339.007 166.316C339.168 165.326 338.495 164.394 337.503 164.233C336.512 164.072 335.577 164.745 335.416 165.734C335.255 166.724 335.929 167.657 336.92 167.818C337.912 167.978 338.846 167.306 339.007 166.316Z" fill="white"/>
<path d="M342.474 167.043C342.474 167.402 342.367 167.753 342.167 168.052C341.967 168.35 341.683 168.583 341.351 168.721C341.019 168.858 340.653 168.894 340.3 168.824C339.947 168.754 339.623 168.581 339.369 168.327C339.114 168.073 338.941 167.749 338.871 167.397C338.801 167.045 338.837 166.68 338.974 166.348C339.112 166.016 339.345 165.733 339.644 165.533C339.943 165.334 340.295 165.227 340.655 165.227C341.137 165.227 341.6 165.418 341.941 165.759C342.282 166.099 342.474 166.561 342.474 167.043Z" fill="white"/>
<path d="M345.867 166.016C345.867 166.375 345.761 166.726 345.561 167.024C345.361 167.323 345.077 167.556 344.744 167.693C344.412 167.831 344.046 167.867 343.694 167.797C343.341 167.726 343.017 167.554 342.762 167.3C342.508 167.046 342.335 166.722 342.264 166.37C342.194 166.018 342.23 165.652 342.368 165.321C342.506 164.989 342.739 164.705 343.038 164.506C343.337 164.306 343.689 164.2 344.048 164.2C344.531 164.2 344.993 164.391 345.335 164.732C345.676 165.072 345.867 165.534 345.867 166.016Z" fill="white"/>
<path d="M348.848 164.213C348.848 164.572 348.741 164.924 348.541 165.222C348.341 165.521 348.057 165.754 347.725 165.891C347.393 166.028 347.027 166.064 346.674 165.994C346.321 165.924 345.997 165.751 345.743 165.497C345.488 165.243 345.315 164.92 345.245 164.568C345.175 164.215 345.211 163.85 345.348 163.518C345.486 163.187 345.719 162.903 346.018 162.703C346.317 162.504 346.669 162.397 347.029 162.397C347.268 162.397 347.504 162.444 347.725 162.535C347.946 162.626 348.147 162.76 348.316 162.929C348.485 163.097 348.619 163.298 348.71 163.518C348.801 163.739 348.848 163.975 348.848 164.213Z" fill="white"/>
<path d="M349.426 163.733C350.431 163.733 351.245 162.92 351.245 161.917C351.245 160.915 350.431 160.102 349.426 160.102C348.422 160.102 347.607 160.915 347.607 161.917C347.607 162.92 348.422 163.733 349.426 163.733Z" fill="white"/>
<path d="M353.726 159.63C353.726 159.989 353.619 160.34 353.419 160.639C353.219 160.937 352.935 161.17 352.603 161.307C352.27 161.445 351.905 161.481 351.552 161.411C351.199 161.341 350.875 161.168 350.621 160.914C350.366 160.66 350.193 160.336 350.123 159.984C350.053 159.632 350.089 159.267 350.226 158.935C350.364 158.603 350.597 158.32 350.896 158.12C351.195 157.92 351.547 157.814 351.907 157.814C352.146 157.814 352.382 157.86 352.603 157.952C352.824 158.043 353.025 158.177 353.194 158.345C353.363 158.514 353.496 158.714 353.588 158.935C353.679 159.155 353.726 159.391 353.726 159.63Z" fill="white"/>
<path d="M355.543 156.893C355.543 157.253 355.436 157.604 355.237 157.902C355.037 158.201 354.753 158.434 354.42 158.571C354.088 158.709 353.722 158.745 353.369 158.674C353.016 158.604 352.692 158.431 352.438 158.177C352.184 157.924 352.01 157.6 351.94 157.248C351.87 156.895 351.906 156.53 352.044 156.199C352.181 155.867 352.415 155.583 352.714 155.384C353.013 155.184 353.364 155.078 353.724 155.078C353.963 155.077 354.2 155.124 354.421 155.215C354.641 155.306 354.842 155.44 355.011 155.609C355.18 155.778 355.314 155.978 355.405 156.198C355.496 156.419 355.543 156.655 355.543 156.893Z" fill="white"/>
<path d="M356.719 153.897C356.719 154.257 356.612 154.608 356.412 154.906C356.212 155.205 355.928 155.438 355.596 155.575C355.264 155.712 354.898 155.748 354.545 155.678C354.192 155.608 353.868 155.435 353.614 155.181C353.359 154.927 353.186 154.604 353.116 154.252C353.046 153.899 353.082 153.534 353.22 153.202C353.357 152.871 353.59 152.587 353.889 152.388C354.189 152.188 354.54 152.082 354.9 152.082C355.139 152.081 355.376 152.128 355.596 152.219C355.817 152.31 356.018 152.444 356.187 152.613C356.356 152.781 356.49 152.982 356.581 153.202C356.672 153.423 356.719 153.659 356.719 153.897Z" fill="white"/>
<path d="M104.329 164.027C115.486 166.227 134.11 188.588 135.498 205.615C129.307 206.849 122.388 202.733 122.388 202.733L107.608 184.017L104.329 164.027Z" fill="#DE623C"/>
<path d="M82.7902 106.395C75.8435 99.291 61.7194 98.1977 59.1106 108.526C56.5018 118.854 56.7623 125.84 43.8401 123.445C33.5502 121.544 22.338 130.205 21.4777 144.811C20.3761 163.498 33.7765 156.989 30.2305 166.04C26.6846 175.092 24.1889 184.344 37.5509 185.435C50.9128 186.526 61.9606 175.955 61.2924 160.674C60.6242 145.393 70.0346 151.541 73.3137 144.195C77.9762 133.752 82.7902 106.395 82.7902 106.395Z" fill="#201D40"/>
<path d="M115.208 389.163L121.233 365.468L106.289 363.413C105.777 374.619 104.938 385.653 105.008 388.641L115.208 389.163Z" fill="#F37A50"/>
<path d="M79.5328 363.271H63.9229C64.4352 367.007 66.4847 387.229 66.4847 387.229C67.804 390.212 79.4367 389.535 79.4367 387.855C78.5614 384.217 79.4581 363.744 79.5328 363.271Z" fill="#F37A50"/>
<path d="M105.056 372.538L120.45 374.806L131.124 311.081C128.928 286.891 107.594 235.438 107.594 235.438L83.5558 243.841L82.9688 266.533L111.917 315.465C108.151 324.928 105.57 355.524 105.056 372.538Z" fill="#C4204A"/>
<path d="M93.1589 237.144C92.9454 235.652 92.8643 235.183 91.6197 234.435L68.5272 227.898L63.0299 233.314C57.8273 252.178 61.051 278.418 65.1648 299.243C59.1552 317.265 61.5057 354.42 63.9244 371.881H80.3392C81.2935 360.208 80.9946 338.556 81.0672 328.096C83.202 319.693 85.2451 310.728 87.0768 301.297C89.4251 289.249 92.3541 277.579 93.1611 266.651C93.8912 256.283 94.1111 245.175 93.1589 237.144Z" fill="#E62552"/>
<path d="M105.428 133.934C105.554 121.406 97.6659 111.171 87.8103 111.073C77.9547 110.974 69.8634 121.05 69.738 133.578C69.6125 146.105 77.5003 156.341 87.3558 156.439C97.2114 156.537 105.303 146.461 105.428 133.934Z" fill="#F37A50"/>
<path d="M75.5254 145.693L89.8566 153.818C89.8566 153.818 91.1375 159.613 91.7651 161.49C93.0738 165.369 88.0548 167.064 83.8128 164.649C81.2012 163.143 78.842 161.238 76.8212 159.003L75.5254 145.693Z" fill="#F37A50"/>
<path d="M105.655 131.027C102.239 130.716 83.2195 125.814 81.0206 122.382C81.2 130.53 68.9054 139.825 67.2573 137.433C61.4933 122.372 65.6968 109.475 82.5791 106.104C105.729 101.502 105.655 131.027 105.655 131.027Z" fill="#2C2858"/>
<path d="M84.0304 137.4C84.2384 137.73 84.5398 137.992 84.8967 138.151C85.2535 138.311 85.6496 138.361 86.0351 138.296C86.4205 138.231 86.7779 138.053 87.062 137.785C87.3462 137.517 87.5444 137.17 87.6315 136.79C87.7187 136.409 87.6909 136.012 87.5516 135.647C87.4124 135.282 87.1679 134.967 86.8492 134.741C86.5305 134.515 86.1518 134.388 85.7611 134.377C85.3703 134.366 84.985 134.471 84.6538 134.678C84.4338 134.816 84.2432 134.996 84.0928 135.207C83.9424 135.418 83.8352 135.657 83.7773 135.91C83.7194 136.163 83.712 136.425 83.7554 136.68C83.7988 136.936 83.8923 137.18 84.0304 137.4Z" fill="black"/>
<path d="M97.8449 137.217C98.0406 137.527 98.3239 137.771 98.6588 137.92C98.9938 138.069 99.3655 138.116 99.7269 138.054C100.088 137.992 100.423 137.825 100.69 137.573C100.956 137.321 101.141 136.996 101.223 136.639C101.304 136.282 101.277 135.909 101.147 135.567C101.016 135.225 100.786 134.93 100.487 134.718C100.188 134.506 99.8328 134.388 99.4663 134.377C99.0997 134.367 98.7383 134.465 98.4277 134.66C98.2207 134.789 98.0414 134.958 97.9 135.157C97.7586 135.355 97.6579 135.58 97.6038 135.818C97.5496 136.055 97.543 136.301 97.5844 136.541C97.6258 136.782 97.7143 137.011 97.8449 137.217Z" fill="black"/>
<path d="M102.953 133.31C103.026 133.279 103.092 133.233 103.147 133.176C103.284 133.024 103.36 132.828 103.36 132.624C103.36 132.42 103.284 132.223 103.147 132.072C100.916 129.525 98.1752 130.264 98.06 130.296C97.9667 130.328 97.8808 130.378 97.8075 130.444C97.7341 130.51 97.6747 130.59 97.6329 130.679C97.5911 130.768 97.5676 130.864 97.564 130.963C97.5603 131.061 97.5765 131.159 97.6117 131.251C97.6631 131.446 97.788 131.613 97.9603 131.719C98.1325 131.824 98.3387 131.859 98.536 131.816C98.6257 131.792 100.556 131.302 102.125 133.095C102.222 133.214 102.355 133.299 102.504 133.338C102.653 133.376 102.81 133.367 102.953 133.31Z" fill="#2C2858"/>
<path d="M82.1088 133.67C82.0368 133.637 81.9711 133.591 81.9146 133.536C81.7785 133.383 81.7041 133.186 81.7061 132.982C81.7081 132.778 81.7862 132.582 81.9252 132.432C84.1561 129.874 86.8951 130.624 87.0104 130.656C87.1037 130.688 87.1896 130.739 87.263 130.804C87.3365 130.87 87.396 130.95 87.438 131.039C87.48 131.128 87.5036 131.224 87.5076 131.323C87.5115 131.421 87.4956 131.519 87.4609 131.611C87.408 131.806 87.2825 131.973 87.1102 132.078C86.9379 132.183 86.7318 132.218 86.5343 132.176C86.4447 132.153 84.5169 131.662 82.9478 133.455C82.8495 133.576 82.7149 133.662 82.5639 133.701C82.4128 133.739 82.2533 133.729 82.1088 133.67Z" fill="#2C2858"/>
<path d="M96.4406 138.553C97.0191 139.768 97.4802 140.977 98.1484 141.799C98.2563 141.935 98.3082 142.106 98.2935 142.278C98.2788 142.451 98.1986 142.611 98.0694 142.726C96.97 143.709 94.6238 144.031 93.2169 144.137C93.1734 144.141 93.1299 144.129 93.0945 144.103C93.059 144.078 93.0341 144.04 93.0242 143.998C93.0143 143.955 93.0202 143.91 93.0407 143.872C93.0612 143.833 93.095 143.803 93.1358 143.788C94.7455 143.123 95.5503 142.509 95.9239 142.14C96.0147 142.051 96.083 141.941 96.1235 141.821C96.1639 141.7 96.1753 141.571 96.1566 141.445C96.0734 140.857 95.9132 139.662 95.8599 138.698C95.8566 138.628 95.8778 138.559 95.9199 138.502C95.962 138.446 96.0224 138.406 96.0908 138.388C96.1592 138.371 96.2314 138.379 96.2952 138.409C96.3589 138.439 96.4103 138.49 96.4406 138.553Z" fill="#DE623C"/>
<path d="M74.119 138.207C76.1769 140.319 76.4438 143.395 74.7124 145.074C72.9811 146.754 69.9112 146.408 67.8532 144.296C65.7952 142.184 65.5284 139.111 67.2597 137.429C68.9911 135.748 72.061 136.099 74.119 138.207Z" fill="#F37A50"/>
<path d="M72.7367 143.34C72.8239 143.287 72.8971 143.214 72.9502 143.127C73.723 141.849 73.6739 140.521 72.82 139.553C72.394 139.07 71.828 138.731 71.2004 138.582C70.5727 138.434 69.9145 138.484 69.3167 138.726C69.1602 138.795 69.0376 138.924 68.9759 139.083C68.9143 139.243 68.9186 139.42 68.988 139.577C69.0573 139.733 69.186 139.855 69.3458 139.917C69.5055 139.978 69.6832 139.974 69.8398 139.905C70.1863 139.776 70.5636 139.755 70.9224 139.844C71.2811 139.933 71.6047 140.128 71.8508 140.404C72.3268 140.943 72.3247 141.682 71.8508 142.46C71.7708 142.584 71.736 142.731 71.7522 142.877C71.7684 143.024 71.8346 143.16 71.9397 143.263C72.0448 143.366 72.1823 143.43 72.3291 143.444C72.4758 143.457 72.6228 143.42 72.7453 143.338L72.7367 143.34Z" fill="#DE623C"/>
<path d="M111.166 239.205C111.166 239.205 105.253 246.195 104.254 246.72L98.9571 240.94L98.9186 241.038L97.6634 244.341L96.1946 248.201C94.9649 248.201 58.0322 239.942 58.0322 239.942C58.1091 236.617 61.2345 225.85 66.3047 214.388C65.0751 204.68 65.5447 190.092 65.1604 184.499C68.1492 169.489 66.7274 168.218 64.0354 161.145L73.4052 158.374L90.2704 164.314L91.5236 160.252C91.5236 160.252 102.1 162.786 104.333 164.011L108.327 180.659L107.462 216.025C107.462 216.025 108.784 230.283 111.166 239.205Z" fill="#3F964F"/>
<path d="M76.5815 156.541L70.0596 159.312C70.7577 167.234 88.5131 171.969 88.5131 171.969L90.2765 164.322L76.5815 156.541Z" fill="#0E6A41"/>
<path d="M90.2764 164.324L95.5046 170.124C95.5046 170.124 100.026 165.456 98.3888 162.57C96.7513 159.685 90.761 157.739 90.761 157.739L90.2764 164.324Z" fill="#0E6A41"/>
<path d="M91.936 150.665C91.5213 150.704 91.104 150.704 90.6893 150.665C87.6194 150.384 85.681 148.027 85.5998 147.926C85.4795 147.778 85.4233 147.588 85.4435 147.397C85.4637 147.207 85.5587 147.033 85.7076 146.913C85.8565 146.793 86.0472 146.737 86.2375 146.757C86.4279 146.777 86.6024 146.872 86.7228 147.021C86.7377 147.04 88.3773 149.013 90.8366 149.231C92.4377 149.374 94.0645 148.747 95.6741 147.37C95.7457 147.306 95.8293 147.257 95.9201 147.226C96.0109 147.195 96.1071 147.182 96.2029 147.188C96.2987 147.194 96.3924 147.22 96.4783 147.263C96.5642 147.306 96.6406 147.365 96.7032 147.438C96.7657 147.511 96.813 147.595 96.8424 147.686C96.8718 147.778 96.8826 147.874 96.8743 147.97C96.8659 148.065 96.8386 148.158 96.7938 148.243C96.749 148.328 96.6877 148.403 96.6135 148.464C95.0913 149.772 93.5222 150.507 91.936 150.665Z" fill="#DE623C"/>
<path d="M111.573 388.781C113.136 384.682 116.484 384.226 116.484 384.226C122.969 392.877 138.931 387.57 138.402 399.271C114.139 399.119 104.057 399.271 104.057 399.271C104.089 396.583 104.569 390.204 105.124 387.706L106.388 387.92L111.573 388.781Z" fill="#2C2858"/>
<path d="M104.055 398.947H138.413V400.978C138.413 401.164 138.376 401.348 138.305 401.519C138.234 401.691 138.129 401.847 137.998 401.979C137.866 402.11 137.71 402.214 137.538 402.285C137.366 402.356 137.181 402.393 136.995 402.393H105.461C105.275 402.393 105.091 402.356 104.919 402.285C104.747 402.214 104.591 402.11 104.459 401.979C104.328 401.847 104.223 401.691 104.152 401.519C104.081 401.348 104.044 401.164 104.044 400.978V398.947H104.055Z" fill="white"/>
<path d="M98.9233 241.042L97.668 244.346C96.528 236.746 92.2818 204.938 94.6792 196.158C96.9293 187.91 94.1177 179.212 91.3958 170.795C90.734 168.741 90.0423 166.616 89.4531 164.557L90.2793 164.321L91.1034 164.084C91.6862 166.115 92.3693 168.227 93.0247 170.265C95.8235 178.918 98.7141 187.869 96.3316 196.607C94.2672 204.188 97.4353 230.301 98.9233 241.042Z" fill="#0E6A41"/>
<path d="M82.2147 399.384C82.2147 399.384 80.2677 392.138 80.0969 391.198C79.9005 390.132 79.3284 387.635 79.211 386.349C79.1832 386.032 75.8379 383.99 73.2846 384.005C69.8262 384.005 66.6666 386.013 66.6111 386.39C66.2012 388.811 66.1842 391.656 65.5288 394.013C65.0356 395.767 63.6992 399.853 63.6992 399.853L82.2147 399.384Z" fill="#2C2858"/>
<path d="M82.2151 398.821C81.7625 400.26 76.1607 398.608 72.0746 398.608C68.6439 398.608 64.2034 399.938 63.6996 399.42C62.8457 400.933 63.548 404.068 63.548 404.068C63.548 404.068 67.1239 404.254 71.4128 404.068C75.7017 403.883 80.6566 404.158 82.5246 403.604C83.7009 401.636 82.2151 398.821 82.2151 398.821Z" fill="white"/>
<path d="M135.499 205.613C135.499 205.613 118.934 223.983 108.271 226.455C107.63 222.949 108.057 221.34 108.057 221.34L122.391 202.728L135.499 205.613Z" fill="#DE623C"/>
<path d="M107.613 227.915C107.661 227.769 107.733 227.633 107.826 227.51L107.749 227.487C106.236 226.986 105.301 225.699 105.661 224.616C105.721 224.44 105.812 224.277 105.93 224.134C105.128 223.514 104.724 222.642 104.98 221.864C105.087 221.559 105.283 221.293 105.544 221.101C104.69 220.535 104.263 219.584 104.558 218.717C104.921 217.634 106.266 217.101 107.547 217.529C108.827 217.958 109.594 219.185 109.233 220.268C109.143 220.537 108.99 220.78 108.787 220.978C110.051 221.56 110.785 222.702 110.458 223.682C110.398 223.857 110.307 224.019 110.189 224.162C110.992 224.784 111.396 225.654 111.139 226.432C111.041 226.716 110.865 226.966 110.631 227.154C111.402 227.623 111.808 228.463 111.554 229.226C111.248 230.14 110.117 230.59 109.026 230.228C107.935 229.865 107.307 228.832 107.613 227.915Z" fill="#F37A50"/>
<path d="M58.0847 219.144L60.3669 220.056C60.3669 220.056 62.9948 216.347 65.4072 216.467L63.9577 220.007C63.9577 220.007 65.3218 224.225 72.6315 223.743C78.878 225.16 74.508 228.118 76.2372 229.303C78.7884 231.049 71.6345 235.339 65.6079 233.489C57.8072 231.096 52.7412 223.743 52.7412 223.743L58.0847 219.144Z" fill="#F37A50"/>
<path d="M64.0453 161.151C64.0453 161.151 42.0564 170.893 29.7598 196.396C36.9371 206.481 44.6801 200.484 44.6801 200.484L65.1746 184.499C65.1746 184.499 70.3836 175.085 69.7133 170.121C68.7056 162.751 64.0453 161.151 64.0453 161.151Z" fill="#F37A50"/>
<path d="M58.0877 219.144L44.7449 199.636C44.7449 199.636 41.5939 192.153 29.7605 196.395C29.1884 202.746 33.7953 211.789 54.8982 225.725C55.7866 223.451 56.8531 221.251 58.0877 219.144Z" fill="#F37A50"/>
</g>
<defs>
<clipPath id="clip0_977_19088">
<rect width="634" height="405" fill="white" transform="translate(0 0.95166)"/>
</clipPath>
</defs>
</svg>
