<svg width="33" height="36" viewBox="0 0 33 36" fill="none" xmlns="http://www.w3.org/2000/svg">
<ellipse cx="16.486" cy="31.9459" rx="16.486" ry="4.00595" fill="url(#paint0_radial_977_19077)" fill-opacity="0.45"/>
<path d="M32.3565 14.005C32.3565 17.1045 30.3941 19.0249 30.0583 19.3447L19.4956 29.9577L18.9623 30.4947L18.9425 30.5134C18.9216 30.5344 18.8995 30.5566 18.8775 30.5764C18.8605 30.5941 18.8427 30.6109 18.824 30.6266C18.3894 31.0209 17.8679 31.3059 17.3024 31.4583C16.7368 31.6107 16.1434 31.6262 15.5707 31.5034L15.4987 31.487C14.8366 31.3244 14.2312 30.9833 13.7477 30.5006L12.7706 29.583C12.4991 29.3435 12.2783 29.0517 12.1211 28.7249C11.9973 28.4648 11.8913 28.1964 11.8039 27.9217C11.8032 27.9163 11.8032 27.9108 11.8039 27.9054C11.7876 27.854 11.7737 27.8015 11.7586 27.7478C11.6166 27.2241 11.5267 26.6876 11.4902 26.1461C11.4902 26.1461 11.4902 26.1403 11.4902 26.1356C11.471 25.6521 11.4924 25.1679 11.5541 24.688C11.8457 22.2458 13.2319 20.5939 13.7745 20.0078L16.0111 22.2539C16.105 22.3481 16.2322 22.401 16.3649 22.401C16.4976 22.401 16.6248 22.3481 16.7187 22.2539L24.8356 14.0984C24.8553 14.0789 24.8709 14.0558 24.8815 14.0302C24.8922 14.0047 24.8976 13.9772 24.8976 13.9495C24.8976 13.9218 24.8922 13.8944 24.8815 13.8689C24.8709 13.8433 24.8553 13.8201 24.8356 13.8007L22.319 11.2697C21.634 10.5816 21.2491 9.64826 21.249 8.67499C21.2488 7.70173 21.6335 6.76828 22.3184 6.08C23.0033 5.39173 23.9322 5.00499 24.9009 5.00488C25.8695 5.00477 26.7986 5.3913 27.4836 6.07942L30.1489 8.76447C30.4917 9.09252 32.3507 10.9861 32.3565 14.005Z" fill="url(#paint1_linear_977_19077)"/>
<path d="M15.9497 6.41757C14.2905 8.03794 13.6155 8.87848 11.3184 10.9576C8.42881 13.5691 7.06359 14.963 6.42688 17.0831C5.71581 19.4517 6.29559 21.6838 6.45593 22.2465C6.61529 22.8042 6.82653 23.3455 7.08683 23.8634C4.76306 21.6348 3.04811 19.886 2.34749 19.077C2.06557 18.7541 1.811 18.4082 1.58646 18.0427C1.28664 17.5591 1.04335 17.0424 0.86144 16.5029C0.642456 15.8417 0.524921 15.1508 0.512873 14.454C0.499412 13.7114 0.603739 12.9713 0.821935 12.2616C1.1702 11.1488 1.78178 10.1373 2.60427 9.31393C5.29985 6.59541 7.99427 3.87533 10.6875 1.1537C11.2351 0.592385 11.9407 0.213136 12.7093 0.067028C13.478 -0.07908 14.2727 0.0149702 14.9865 0.336513C15.5215 0.581236 15.9904 0.95111 16.354 1.4152C16.6413 1.7884 16.8543 2.21369 16.9815 2.66784C17.1615 3.32829 17.1606 4.02532 16.979 4.68533C16.7974 5.34534 16.4418 5.94382 15.9497 6.41757Z" fill="url(#paint2_linear_977_19077)"/>
<path d="M6.07305 21.262C6.03723 20.9909 6.01551 20.7181 6.00798 20.4448C6.00146 20.0841 6.02282 19.7235 6.07188 19.3661C6.12824 18.989 6.21133 18.6164 6.32053 18.2512C6.66985 17.1386 7.28219 16.1276 8.10519 15.3047L11.5014 11.8748C12.2012 11.2641 13.1051 10.942 14.0315 10.9733C14.958 11.0046 15.8383 11.3869 16.4957 12.0435C17.1532 12.7 17.539 13.5822 17.5758 14.5128C17.6125 15.4435 17.2975 16.3536 16.6939 17.0605C16.6323 17.1305 16.5684 17.2005 16.5021 17.2683L13.7694 20.0152L13.738 20.0467L13.6358 20.1483L13.573 20.2241C12.6064 21.3969 11.9627 22.8036 11.7059 24.3043C11.449 25.9343 11.6694 27.6041 12.3403 29.1105L6.86545 23.6587C6.70628 23.3493 6.21944 22.3232 6.07305 21.262Z" fill="url(#paint3_linear_977_19077)"/>
<defs>
<radialGradient id="paint0_radial_977_19077" cx="0" cy="0" r="1" gradientUnits="userSpaceOnUse" gradientTransform="translate(16.486 31.9459) rotate(90) scale(4.00595 16.486)">
<stop stop-color="#010119" stop-opacity="0.39"/>
<stop offset="1" stop-color="#C4C4C4" stop-opacity="0"/>
</radialGradient>
<linearGradient id="paint1_linear_977_19077" x1="11.6087" y1="17.8761" x2="18.0724" y2="18.1745" gradientUnits="userSpaceOnUse">
<stop stop-color="#004F02"/>
<stop offset="0.16" stop-color="#006106"/>
<stop offset="1" stop-color="#00BC1B"/>
</linearGradient>
<linearGradient id="paint2_linear_977_19077" x1="1.0306" y1="25.4561" x2="23.3686" y2="8.00117" gradientUnits="userSpaceOnUse">
<stop stop-color="#012168"/>
<stop offset="1" stop-color="#002082"/>
</linearGradient>
<linearGradient id="paint3_linear_977_19077" x1="6.36846" y1="30.3212" x2="22.9376" y2="18.4506" gradientUnits="userSpaceOnUse">
<stop stop-color="#012168"/>
<stop offset="1" stop-color="#002082"/>
</linearGradient>
</defs>
</svg>
