<svg width="136" height="41" viewBox="0 0 136 41" fill="none" xmlns="http://www.w3.org/2000/svg">
<rect x="1" y="1.45166" width="134" height="39" rx="4.5" fill="black"/>
<path d="M68.636 22.703C66.284 22.703 64.367 24.492 64.367 26.956C64.367 29.405 66.284 31.209 68.636 31.209C70.989 31.209 72.906 29.405 72.906 26.956C72.905 24.492 70.988 22.703 68.636 22.703ZM68.636 29.535C67.347 29.535 66.236 28.472 66.236 26.957C66.236 25.426 67.348 24.379 68.636 24.379C69.925 24.379 71.036 25.426 71.036 26.957C71.036 28.471 69.925 29.535 68.636 29.535ZM59.322 22.703C56.97 22.703 55.053 24.492 55.053 26.956C55.053 29.405 56.97 31.209 59.322 31.209C61.675 31.209 63.592 29.405 63.592 26.956C63.592 24.492 61.675 22.703 59.322 22.703ZM59.322 29.535C58.033 29.535 56.922 28.472 56.922 26.957C56.922 25.426 58.034 24.379 59.322 24.379C60.611 24.379 61.722 25.426 61.722 26.957C61.723 28.471 60.611 29.535 59.322 29.535ZM48.244 24.009V25.813H52.562C52.433 26.828 52.095 27.569 51.579 28.084C50.951 28.712 49.968 29.405 48.244 29.405C45.586 29.405 43.508 27.262 43.508 24.604C43.508 21.946 45.586 19.803 48.244 19.803C49.678 19.803 50.725 20.367 51.498 21.092L52.771 19.819C51.691 18.788 50.258 17.999 48.244 17.999C44.603 17.999 41.542 20.963 41.542 24.604C41.542 28.245 44.603 31.209 48.244 31.209C50.209 31.209 51.692 30.564 52.851 29.356C54.043 28.164 54.414 26.488 54.414 25.135C54.414 24.717 54.382 24.33 54.317 24.008H48.244V24.009ZM93.552 25.41C93.198 24.46 92.118 22.703 89.911 22.703C87.72 22.703 85.899 24.427 85.899 26.956C85.899 29.34 87.704 31.209 90.12 31.209C92.069 31.209 93.197 30.017 93.665 29.324L92.215 28.357C91.732 29.066 91.071 29.533 90.12 29.533C89.17 29.533 88.493 29.098 88.058 28.244L93.745 25.892L93.552 25.41ZM87.752 26.828C87.704 25.184 89.025 24.347 89.976 24.347C90.717 24.347 91.345 24.718 91.555 25.249L87.752 26.828ZM83.129 30.952H84.997V18.451H83.129V30.952ZM80.067 23.654H80.003C79.584 23.154 78.778 22.703 77.764 22.703C75.637 22.703 73.688 24.572 73.688 26.973C73.688 29.357 75.637 31.21 77.764 31.21C78.779 31.21 79.584 30.759 80.003 30.244H80.067V30.856C80.067 32.483 79.197 33.353 77.796 33.353C76.652 33.353 75.943 32.532 75.653 31.839L74.026 32.516C74.493 33.643 75.733 35.029 77.796 35.029C79.987 35.029 81.84 33.74 81.84 30.598V22.962H80.068V23.654H80.067ZM77.925 29.535C76.636 29.535 75.557 28.455 75.557 26.973C75.557 25.474 76.636 24.379 77.925 24.379C79.197 24.379 80.196 25.474 80.196 26.973C80.196 28.455 79.197 29.535 77.925 29.535ZM102.306 18.451H97.835V30.952H99.7V26.216H102.305C104.373 26.216 106.407 24.719 106.407 22.334C106.407 19.949 104.374 18.451 102.306 18.451ZM102.354 24.476H99.7V20.191H102.354C103.749 20.191 104.541 21.346 104.541 22.334C104.541 23.302 103.749 24.476 102.354 24.476ZM113.886 22.681C112.535 22.681 111.136 23.276 110.557 24.595L112.213 25.286C112.567 24.595 113.227 24.369 113.918 24.369C114.883 24.369 115.864 24.948 115.88 25.977V26.106C115.542 25.913 114.818 25.624 113.934 25.624C112.149 25.624 110.331 26.605 110.331 28.438C110.331 30.111 111.795 31.188 113.435 31.188C114.689 31.188 115.381 30.625 115.815 29.965H115.879V30.93H117.681V26.137C117.682 23.919 116.024 22.681 113.886 22.681ZM113.66 29.532C113.05 29.532 112.197 29.226 112.197 28.47C112.197 27.505 113.259 27.135 114.176 27.135C114.995 27.135 115.382 27.312 115.88 27.553C115.735 28.712 114.738 29.532 113.66 29.532ZM124.243 22.954L122.104 28.374H122.04L119.82 22.954H117.81L121.139 30.529L119.241 34.743H121.187L126.318 22.954H124.243ZM107.437 30.952H109.302V18.451H107.437V30.952Z" fill="white"/>
<path d="M47.9176 11.1944C47.9176 12.0324 47.6696 12.6994 47.1726 13.1974C46.6086 13.7894 45.8726 14.0854 44.9686 14.0854C44.1026 14.0854 43.3656 13.7854 42.7606 13.1854C42.1546 12.5844 41.8516 11.8404 41.8516 10.9524C41.8516 10.0634 42.1546 9.31936 42.7606 8.71936C43.3656 8.11836 44.1026 7.81836 44.9686 7.81836C45.3986 7.81836 45.8096 7.90236 46.1996 8.06936C46.5906 8.23736 46.9036 8.46036 47.1376 8.73936L46.6106 9.26736C46.2136 8.79236 45.6666 8.55536 44.9676 8.55536C44.3356 8.55536 43.7896 8.77736 43.3286 9.22136C42.8676 9.66536 42.6376 10.2424 42.6376 10.9514C42.6376 11.6604 42.8676 12.2374 43.3286 12.6814C43.7896 13.1254 44.3356 13.3474 44.9676 13.3474C45.6376 13.3474 46.1966 13.1244 46.6436 12.6774C46.9336 12.3864 47.1016 11.9814 47.1466 11.4624H44.9676V10.7414H47.8746C47.9046 10.8984 47.9176 11.0494 47.9176 11.1944Z" fill="white"/>
<path d="M52.5277 8.68842H49.7957V10.5904H52.2597V11.3114H49.7957V13.2134H52.5277V13.9514H49.0247V7.95142H52.5277V8.68842Z" fill="white"/>
<path d="M55.7785 13.9514H55.0075V8.68842H53.3315V7.95142H57.4545V8.68842H55.7785V13.9514Z" fill="white"/>
<path d="M60.4375 13.9514V7.95142H61.2085V13.9514H60.4375Z" fill="white"/>
<path d="M64.6277 13.9514H63.8567V8.68842H62.1807V7.95142H66.3037V8.68842H64.6277V13.9514Z" fill="white"/>
<path d="M74.1084 13.1764C73.5184 13.7824 72.7854 14.0854 71.9084 14.0854C71.0314 14.0854 70.2984 13.7824 69.7094 13.1764C69.1194 12.5704 68.8254 11.8284 68.8254 10.9514C68.8254 10.0744 69.1194 9.33241 69.7094 8.72641C70.2984 8.12041 71.0314 7.81641 71.9084 7.81641C72.7804 7.81641 73.5124 8.12141 74.1044 8.73041C74.6964 9.33941 74.9924 10.0794 74.9924 10.9514C74.9924 11.8284 74.6974 12.5704 74.1084 13.1764ZM70.2784 12.6734C70.7224 13.1234 71.2654 13.3474 71.9084 13.3474C72.5514 13.3474 73.0954 13.1224 73.5384 12.6734C73.9824 12.2234 74.2054 11.6494 74.2054 10.9514C74.2054 10.2534 73.9824 9.67941 73.5384 9.22941C73.0954 8.77941 72.5514 8.55541 71.9084 8.55541C71.2654 8.55541 70.7224 8.78041 70.2784 9.22941C69.8354 9.67941 69.6124 10.2534 69.6124 10.9514C69.6124 11.6494 69.8354 12.2234 70.2784 12.6734Z" fill="white"/>
<path d="M76.0745 13.9514V7.95142H77.0125L79.9285 12.6184H79.9615L79.9285 11.4624V7.95142H80.6995V13.9514H79.8945L76.8435 9.05742H76.8105L76.8435 10.2134V13.9514H76.0745Z" fill="white"/>
<path d="M47.9176 11.1944C47.9176 12.0324 47.6696 12.6994 47.1726 13.1974C46.6086 13.7894 45.8726 14.0854 44.9686 14.0854C44.1026 14.0854 43.3656 13.7854 42.7606 13.1854C42.1546 12.5844 41.8516 11.8404 41.8516 10.9524C41.8516 10.0634 42.1546 9.31936 42.7606 8.71936C43.3656 8.11836 44.1026 7.81836 44.9686 7.81836C45.3986 7.81836 45.8096 7.90236 46.1996 8.06936C46.5906 8.23736 46.9036 8.46036 47.1376 8.73936L46.6106 9.26736C46.2136 8.79236 45.6666 8.55536 44.9676 8.55536C44.3356 8.55536 43.7896 8.77736 43.3286 9.22136C42.8676 9.66536 42.6376 10.2424 42.6376 10.9514C42.6376 11.6604 42.8676 12.2374 43.3286 12.6814C43.7896 13.1254 44.3356 13.3474 44.9676 13.3474C45.6376 13.3474 46.1966 13.1244 46.6436 12.6774C46.9336 12.3864 47.1016 11.9814 47.1466 11.4624H44.9676V10.7414H47.8746C47.9046 10.8984 47.9176 11.0494 47.9176 11.1944Z" stroke="white" stroke-width="0.2" stroke-miterlimit="10"/>
<path d="M52.5277 8.68842H49.7957V10.5904H52.2597V11.3114H49.7957V13.2134H52.5277V13.9514H49.0247V7.95142H52.5277V8.68842Z" stroke="white" stroke-width="0.2" stroke-miterlimit="10"/>
<path d="M55.7785 13.9514H55.0075V8.68842H53.3315V7.95142H57.4545V8.68842H55.7785V13.9514Z" stroke="white" stroke-width="0.2" stroke-miterlimit="10"/>
<path d="M60.4375 13.9514V7.95142H61.2085V13.9514H60.4375Z" stroke="white" stroke-width="0.2" stroke-miterlimit="10"/>
<path d="M64.6277 13.9514H63.8567V8.68842H62.1807V7.95142H66.3037V8.68842H64.6277V13.9514Z" stroke="white" stroke-width="0.2" stroke-miterlimit="10"/>
<path d="M74.1084 13.1764C73.5184 13.7824 72.7854 14.0854 71.9084 14.0854C71.0314 14.0854 70.2984 13.7824 69.7094 13.1764C69.1194 12.5704 68.8254 11.8284 68.8254 10.9514C68.8254 10.0744 69.1194 9.33241 69.7094 8.72641C70.2984 8.12041 71.0314 7.81641 71.9084 7.81641C72.7804 7.81641 73.5124 8.12141 74.1044 8.73041C74.6964 9.33941 74.9924 10.0794 74.9924 10.9514C74.9924 11.8284 74.6974 12.5704 74.1084 13.1764ZM70.2784 12.6734C70.7224 13.1234 71.2654 13.3474 71.9084 13.3474C72.5514 13.3474 73.0954 13.1224 73.5384 12.6734C73.9824 12.2234 74.2054 11.6494 74.2054 10.9514C74.2054 10.2534 73.9824 9.67941 73.5384 9.22941C73.0954 8.77941 72.5514 8.55541 71.9084 8.55541C71.2654 8.55541 70.7224 8.78041 70.2784 9.22941C69.8354 9.67941 69.6124 10.2534 69.6124 10.9514C69.6124 11.6494 69.8354 12.2234 70.2784 12.6734Z" stroke="white" stroke-width="0.2" stroke-miterlimit="10"/>
<path d="M76.0745 13.9514V7.95142H77.0125L79.9285 12.6184H79.9615L79.9285 11.4624V7.95142H80.6995V13.9514H79.8945L76.8435 9.05742H76.8105L76.8435 10.2134V13.9514H76.0745Z" stroke="white" stroke-width="0.2" stroke-miterlimit="10"/>
<g filter="url(#filter0_ii_977_19396)">
<path d="M10.9357 8.48999C10.6447 8.79799 10.4727 9.27599 10.4727 9.89499V32.011C10.4727 32.631 10.6447 33.108 10.9357 33.416L11.0097 33.488L23.3987 21.099V20.953V20.807L11.0097 8.41699L10.9357 8.48999Z" fill="url(#paint0_linear_977_19396)"/>
<path d="M27.5274 25.2298L23.3984 21.0988V20.9528V20.8068L27.5284 16.6768L27.6214 16.7298L32.5144 19.5098C33.9114 20.3038 33.9114 21.6028 32.5144 22.3978L27.6214 25.1778L27.5274 25.2298Z" fill="url(#paint1_linear_977_19396)"/>
<g filter="url(#filter1_i_977_19396)">
<path d="M27.6215 25.1766L23.3975 20.9526L10.9355 33.4156C11.3955 33.9036 12.1565 33.9636 13.0135 33.4776L27.6215 25.1766Z" fill="url(#paint2_linear_977_19396)"/>
</g>
<path d="M27.6215 16.7288L13.0135 8.42885C12.1565 7.94185 11.3955 8.00285 10.9355 8.49085L23.3985 20.9538L27.6215 16.7288Z" fill="url(#paint3_linear_977_19396)"/>
</g>
<rect x="1" y="1.45166" width="134" height="39" rx="4.5" stroke="#A6A6A6"/>
<defs>
<filter id="filter0_ii_977_19396" x="10.4727" y="8.09277" width="23.0898" height="25.7207" filterUnits="userSpaceOnUse" color-interpolation-filters="sRGB">
<feFlood flood-opacity="0" result="BackgroundImageFix"/>
<feBlend mode="normal" in="SourceGraphic" in2="BackgroundImageFix" result="shape"/>
<feColorMatrix in="SourceAlpha" type="matrix" values="0 0 0 0 0 0 0 0 0 0 0 0 0 0 0 0 0 0 127 0" result="hardAlpha"/>
<feOffset dy="-0.15"/>
<feComposite in2="hardAlpha" operator="arithmetic" k2="-1" k3="1"/>
<feColorMatrix type="matrix" values="0 0 0 0 0 0 0 0 0 0 0 0 0 0 0 0 0 0 0.12 0"/>
<feBlend mode="normal" in2="shape" result="effect1_innerShadow_977_19396"/>
<feColorMatrix in="SourceAlpha" type="matrix" values="0 0 0 0 0 0 0 0 0 0 0 0 0 0 0 0 0 0 127 0" result="hardAlpha"/>
<feOffset dy="0.15"/>
<feComposite in2="hardAlpha" operator="arithmetic" k2="-1" k3="1"/>
<feColorMatrix type="matrix" values="0 0 0 0 1 0 0 0 0 1 0 0 0 0 1 0 0 0 0.25 0"/>
<feBlend mode="normal" in2="effect1_innerShadow_977_19396" result="effect2_innerShadow_977_19396"/>
</filter>
<filter id="filter1_i_977_19396" x="10.9355" y="20.9526" width="16.6855" height="12.8608" filterUnits="userSpaceOnUse" color-interpolation-filters="sRGB">
<feFlood flood-opacity="0" result="BackgroundImageFix"/>
<feBlend mode="normal" in="SourceGraphic" in2="BackgroundImageFix" result="shape"/>
<feColorMatrix in="SourceAlpha" type="matrix" values="0 0 0 0 0 0 0 0 0 0 0 0 0 0 0 0 0 0 127 0" result="hardAlpha"/>
<feOffset dy="-0.15"/>
<feComposite in2="hardAlpha" operator="arithmetic" k2="-1" k3="1"/>
<feColorMatrix type="matrix" values="0 0 0 0 0 0 0 0 0 0 0 0 0 0 0 0 0 0 0.08 0"/>
<feBlend mode="normal" in2="shape" result="effect1_innerShadow_977_19396"/>
</filter>
<linearGradient id="paint0_linear_977_19396" x1="22.3005" y1="9.66099" x2="5.51846" y2="26.443" gradientUnits="userSpaceOnUse">
<stop stop-color="#00A0FF"/>
<stop offset="0.0066" stop-color="#00A1FF"/>
<stop offset="0.2601" stop-color="#00BEFF"/>
<stop offset="0.5122" stop-color="#00D2FF"/>
<stop offset="0.7604" stop-color="#00DFFF"/>
<stop offset="1" stop-color="#00E3FF"/>
</linearGradient>
<linearGradient id="paint1_linear_977_19396" x1="34.3329" y1="20.9528" x2="10.137" y2="20.9528" gradientUnits="userSpaceOnUse">
<stop stop-color="#FFE000"/>
<stop offset="0.4087" stop-color="#FFBD00"/>
<stop offset="0.7754" stop-color="#FFA500"/>
<stop offset="1" stop-color="#FF9C00"/>
</linearGradient>
<linearGradient id="paint2_linear_977_19396" x1="25.3276" y1="23.2465" x2="2.56915" y2="46.005" gradientUnits="userSpaceOnUse">
<stop stop-color="#FF3A44"/>
<stop offset="1" stop-color="#C31162"/>
</linearGradient>
<linearGradient id="paint3_linear_977_19396" x1="7.79695" y1="1.12865" x2="17.9592" y2="11.291" gradientUnits="userSpaceOnUse">
<stop stop-color="#32A071"/>
<stop offset="0.0685" stop-color="#2DA771"/>
<stop offset="0.4762" stop-color="#15CF74"/>
<stop offset="0.8009" stop-color="#06E775"/>
<stop offset="1" stop-color="#00F076"/>
</linearGradient>
</defs>
</svg>
